<svg xmlns="http://www.w3.org/2000/svg" xmlns:se="http://svg-edit.googlecode.com" xmlns:xlink="http://www.w3.org/1999/xlink" xmlns:dc="http://purl.org/dc/elements/1.1/" xmlns:cc="http://creativecommons.org/ns#" xmlns:rdf="http://www.w3.org/1999/02/22-rdf-syntax-ns#" xmlns:inkscape="http://www.inkscape.org/namespaces/inkscape" width="100" height="100" style="">                                    <title>my vector image</title>                                    <!-- Created with Vector Paint - http://www.vectorpaint.yaks.com/ https://chrome.google.com/webstore/detail/hnbpdiengicdefcjecjbnjnoifekhgdo -->                                    <rect id="backgroundrect" width="100%" height="100%" x="0" y="0" fill="#FFFFFF" stroke="none"/>                                <g class="currentLayer" style=""><title>Layer 1</title><rect fill="#6d6d6d" stroke-width="2" stroke-linejoin="round" stroke-dashoffset="" fill-rule="nonzero" id="svg_9" x="-0.113641157746315" y="-0.059044528752565384" width="100.04546356201172" height="104.05903625488281" style="color: rgb(6, 168, 168);" class="" fill-opacity="1"/><path fill="#242626" fill-opacity="1" stroke="none" stroke-width="2" stroke-dasharray="none" stroke-linejoin="round" stroke-linecap="butt" stroke-dashoffset="" fill-rule="nonzero" opacity="1" marker-start="" marker-mid="" marker-end="" d="M-5.225444952840318,95.70454578119899 C-5.225444952840318,79.858236060404 19.488703610512143,67.02272518656008 49.99999813316949,67.02272518656008 C80.51129265582685,67.02272518656008 105.2254412191793,79.858236060404 105.2254412191793,95.70454578119899 C105.2254412191793,111.55085550199398 80.51129265582685,124.38636637583791 49.99999813316949,124.38636637583791 C19.488703610512143,124.38636637583791 -5.225444952840318,111.55085550199398 -5.225444952840318,95.70454578119899 z" id="svg_6" class=""/><rect fill="#141414" stroke-width="2" stroke-linejoin="round" stroke-dashoffset="" fill-rule="nonzero" id="svg_14" x="41.5" y="67" width="17" height="46.568180084228516" style="color: rgb(33, 31, 31);" class="" fill-opacity="1"/><path fill="#f7f0cf" fill-opacity="1" stroke="none" stroke-width="0" stroke-dasharray="none" stroke-linejoin="round" stroke-linecap="butt" stroke-dashoffset="" fill-rule="nonzero" opacity="1" marker-start="" marker-mid="" marker-end="" d="M21.659092304190303,41.045453418170126 C21.659092304190303,25.387492786205286 34.34204041608188,12.704544674313865 50.00000104804656,12.704544674313865 C65.65796168001155,12.704544674313865 78.34090979190282,25.387492786205286 78.34090979190282,41.045453418170126 C78.34090979190282,56.70341405013504 65.65796168001155,69.38636216202647 50.00000104804656,69.38636216202647 C34.34204041608188,69.38636216202647 21.659092304190303,56.70341405013504 21.659092304190303,41.045453418170126 z" id="svg_1" class=""/><path fill="#191919" fill-opacity="1" stroke="none" stroke-opacity="1" stroke-width="2" stroke-dasharray="none" stroke-linejoin="round" stroke-linecap="butt" stroke-dashoffset="" fill-rule="nonzero" opacity="1" marker-start="" marker-mid="" marker-end="" d="M53,74.5 C53,73.67127071823204 53.447513812154696,73 54,73 C54.552486187845304,73 55,73.67127071823204 55,74.5 C55,75.32872928176796 54.552486187845304,76 54,76 C53.447513812154696,76 53,75.32872928176796 53,74.5 Z" id="svg_16"/><path fill="#6d6d6d" fill-opacity="1" stroke="none" stroke-opacity="1" stroke-width="2" stroke-dasharray="none" stroke-linejoin="round" stroke-linecap="butt" stroke-dashoffset="" fill-rule="nonzero" opacity="1" marker-start="" marker-mid="" marker-end="" d="M-42,61 C-42,61 -42,61 -42,61 C-42,61 -42,61 -42,61 C-42,61 -42,61 -42,61 C-42,61 -42,61 -42,61 Z" id="svg_4"/><g class="" id="svg_3"><path fill="#f9ce20" fill-opacity="1" stroke="none" stroke-width="2" stroke-dasharray="none" stroke-linejoin="round" stroke-linecap="butt" stroke-dashoffset="" fill-rule="nonzero" opacity="1" marker-start="" marker-mid="" marker-end="" d="M43.84090805053711,74.36363625526428 C43.84090805053711,73.53490697349632 44.51217876876915,72.86363625526428 45.34090805053711,72.86363625526428 C46.16963733230507,72.86363625526428 46.84090805053711,73.53490697349632 46.84090805053711,74.36363625526428 C46.84090805053711,75.19236553703225 46.16963733230507,75.86363625526428 45.34090805053711,75.86363625526428 C44.51217876876915,75.86363625526428 43.84090805053711,75.19236553703225 43.84090805053711,74.36363625526428 z" id="svg_2" class=""/><path fill="#f9ce20" fill-opacity="1" stroke="none" stroke-width="2" stroke-dasharray="none" stroke-linejoin="round" stroke-linecap="butt" stroke-dashoffset="" fill-rule="nonzero" opacity="1" marker-start="" marker-mid="" marker-end="" d="M53.15909004211426,74.47727227210999 C53.15909004211426,73.64854299034202 53.830360760346295,72.97727227210999 54.65909004211426,72.97727227210999 C55.48781932388222,72.97727227210999 56.15909004211426,73.64854299034202 56.15909004211426,74.47727227210999 C56.15909004211426,75.30600155387795 55.48781932388222,75.97727227210999 54.65909004211426,75.97727227210999 C53.830360760346295,75.97727227210999 53.15909004211426,75.30600155387795 53.15909004211426,74.47727227210999 z" class="" id="svg_7"/></g><g class="" id="svg_26"><path fill="#f9ce20" fill-opacity="1" stroke="none" stroke-width="2" stroke-dasharray="none" stroke-linejoin="round" stroke-linecap="butt" stroke-dashoffset="" fill-rule="nonzero" opacity="1" marker-start="" marker-mid="" marker-end="" d="M43.84090867638588,83.90909060835838 C43.84090867638588,83.08036132659042 44.51217939461792,82.40909060835838 45.34090867638588,82.40909060835838 C46.16963795815384,82.40909060835838 46.84090867638588,83.08036132659042 46.84090867638588,83.90909060835838 C46.84090867638588,84.73781989012635 46.16963795815384,85.40909060835838 45.34090867638588,85.40909060835838 C44.51217939461792,85.40909060835838 43.84090867638588,84.73781989012635 43.84090867638588,83.90909060835838 z" id="svg_27" class=""/><path fill="#f9ce20" fill-opacity="1" stroke="none" stroke-width="2" stroke-dasharray="none" stroke-linejoin="round" stroke-linecap="butt" stroke-dashoffset="" fill-rule="nonzero" opacity="1" marker-start="" marker-mid="" marker-end="" d="M53.15909066796303,84.02272662520409 C53.15909066796303,83.19399734343612 53.830361386195065,82.52272662520409 54.65909066796303,82.52272662520409 C55.48781994973099,82.52272662520409 56.15909066796303,83.19399734343612 56.15909066796303,84.02272662520409 C56.15909066796303,84.85145590697205 55.48781994973099,85.52272662520409 54.65909066796303,85.52272662520409 C53.830361386195065,85.52272662520409 53.15909066796303,84.85145590697205 53.15909066796303,84.02272662520409 z" class="" id="svg_28"/></g><g class="" id="svg_35"><path fill="#f9ce20" fill-opacity="1" stroke="none" stroke-width="2" stroke-dasharray="none" stroke-linejoin="round" stroke-linecap="butt" stroke-dashoffset="" fill-rule="nonzero" opacity="1" marker-start="" marker-mid="" marker-end="" d="M43.84090983867645,93.79545421898365 C43.84090983867645,92.96672493721569 44.51218055690849,92.29545421898365 45.34090983867645,92.29545421898365 C46.169639120444415,92.29545421898365 46.84090983867645,92.96672493721569 46.84090983867645,93.79545421898365 C46.84090983867645,94.62418350075161 46.169639120444415,95.29545421898365 45.34090983867645,95.29545421898365 C44.51218055690849,95.29545421898365 43.84090983867645,94.62418350075161 43.84090983867645,93.79545421898365 z" id="svg_36" class=""/><path fill="#f9ce20" fill-opacity="1" stroke="none" stroke-width="2" stroke-dasharray="none" stroke-linejoin="round" stroke-linecap="butt" stroke-dashoffset="" fill-rule="nonzero" opacity="1" marker-start="" marker-mid="" marker-end="" d="M53.1590918302536,93.90909023582935 C53.1590918302536,93.08036095406139 53.83036254848564,92.40909023582935 54.6590918302536,92.40909023582935 C55.487821112021564,92.40909023582935 56.1590918302536,93.08036095406139 56.1590918302536,93.90909023582935 C56.1590918302536,94.73781951759732 55.487821112021564,95.40909023582935 54.6590918302536,95.40909023582935 C53.83036254848564,95.40909023582935 53.1590918302536,94.73781951759732 53.1590918302536,93.90909023582935 z" class="" id="svg_37"/></g><g class="" id="svg_38"><path fill="#f9ce20" fill-opacity="1" stroke="none" stroke-width="2" stroke-dasharray="none" stroke-linejoin="round" stroke-linecap="butt" stroke-dashoffset="" fill-rule="nonzero" opacity="1" marker-start="" marker-mid="" marker-end="" d="M43.840909853577614,104.24999960511923 C43.840909853577614,103.42127032335127 44.51218057180965,102.74999960511923 45.340909853577614,102.74999960511923 C46.16963913534558,102.74999960511923 46.840909853577614,103.42127032335127 46.840909853577614,104.24999960511923 C46.840909853577614,105.07872888688719 46.16963913534558,105.74999960511923 45.340909853577614,105.74999960511923 C44.51218057180965,105.74999960511923 43.840909853577614,105.07872888688719 43.840909853577614,104.24999960511923 z" id="svg_39" class=""/><path fill="#f9ce20" fill-opacity="1" stroke="none" stroke-width="2" stroke-dasharray="none" stroke-linejoin="round" stroke-linecap="butt" stroke-dashoffset="" fill-rule="nonzero" opacity="1" marker-start="" marker-mid="" marker-end="" d="M53.15909184515476,104.36363562196493 C53.15909184515476,103.53490634019697 53.8303625633868,102.86363562196493 54.65909184515476,102.86363562196493 C55.487821126922725,102.86363562196493 56.15909184515476,103.53490634019697 56.15909184515476,104.36363562196493 C56.15909184515476,105.1923649037329 55.487821126922725,105.86363562196493 54.65909184515476,105.86363562196493 C53.8303625633868,105.86363562196493 53.15909184515476,105.1923649037329 53.15909184515476,104.36363562196493 z" class="" id="svg_40"/></g><path fill="#303030" fill-opacity="1" stroke="none" stroke-opacity="1" stroke-width="1" stroke-dasharray="none" stroke-linejoin="miter" stroke-linecap="butt" stroke-dashoffset="" fill-rule="nonzero" opacity="1" marker-start="" marker-mid="" marker-end="" d="M23.5,9 C23.5,4.580110497237569 35.35911602209945,1 50,1 C64.64088397790056,1 76.5,4.580110497237569 76.5,9 C76.5,13.41988950276243 64.64088397790056,17 50,17 C35.35911602209945,17 23.5,13.41988950276243 23.5,9 z" id="svg_5" class=""/><rect fill="#1e1e1e" stroke-dashoffset="" fill-rule="nonzero" id="svg_11" x="30.5" y="10" width="39" height="10" style="color: rgb(48, 48, 48);" class="" fill-opacity="1"/><path fill="#1e1e1e" fill-opacity="1" stroke="none" stroke-opacity="1" stroke-width="1" stroke-dasharray="none" stroke-linejoin="miter" stroke-linecap="butt" stroke-dashoffset="" fill-rule="nonzero" opacity="1" marker-start="" marker-mid="" marker-end="" d="M30.568181812763214,9.795454621315002 C30.568181812763214,8.414239151701743 39.29470114977979,7.295454621315002 50.068181812763214,7.295454621315002 C60.84166247574664,7.295454621315002 69.56818181276321,8.414239151701743 69.56818181276321,9.795454621315002 C69.56818181276321,11.176670090928262 60.84166247574664,12.295454621315002 50.068181812763214,12.295454621315002 C39.29470114977979,12.295454621315002 30.568181812763214,11.176670090928262 30.568181812763214,9.795454621315002 z" id="svg_15" class=""/><path fill="#f9ce20" stroke-dashoffset="" fill-rule="nonzero" marker-start="" marker-mid="" marker-end="" id="svg_19" d="M46.64772648936687,12.13790113262566 L48.27323705189133,10.512390570101443 L49.99999171485114,12.239131081969155 L51.7267463778102,10.512390570101443 L53.352272214529094,12.13790113262566 L51.6255171023289,13.864655795585302 L53.352272214529094,15.591410458544932 L51.7267463778102,17.2169362952638 L49.99999171485114,15.490181183063143 L48.27323705189133,17.2169362952638 L46.64772648936687,15.591410458544932 L48.37446700123472,13.864655795585302 L46.64772648936687,12.13790113262566 z" style="color: rgb(30, 30, 30);" class="" fill-opacity="1"/></g><defs><filter id="f047" inkscape:label="Neon" inkscape:menu="Bevels" inkscape:menu-tooltip="Neon light effect" x="-0.25" y="-0.25" width="1.5" height="1.5" color-interpolation-filters="sRGB">
            <feGaussianBlur stdDeviation="1" result="result1"/>
            <feComposite in="result1" in2="result1" result="result4" operator="in"/>
            <feGaussianBlur stdDeviation="7" result="result6" in="result4"/>
            <feComposite operator="over" in="result6" in2="result4" result="result8"/>
            <feComposite operator="in" result="fbSourceGraphic" in="result6" in2="result8"/>
            <feSpecularLighting specularExponent="45" specularConstant="2" surfaceScale="2.5" lighting-color="#fff" result="result1" in="fbSourceGraphic">
                <fePointLight z="20000" y="-10000" x="-5000"/>
            </feSpecularLighting>
            <feComposite operator="in" result="result2" in="result1" in2="fbSourceGraphic"/>
            <feComposite k3="1.5" k2="1.2" operator="arithmetic" result="result4" in="fbSourceGraphic" in2="result2"/>
            <feComposite operator="over" in="result9" in2="result4" result="result9"/>
            <feBlend mode="screen" in2="result9"/>
        </filter></defs></svg>