<svg xmlns="http://www.w3.org/2000/svg" xmlns:se="http://svg-edit.googlecode.com" xmlns:xlink="http://www.w3.org/1999/xlink" xmlns:dc="http://purl.org/dc/elements/1.1/" xmlns:cc="http://creativecommons.org/ns#" xmlns:rdf="http://www.w3.org/1999/02/22-rdf-syntax-ns#" xmlns:inkscape="http://www.inkscape.org/namespaces/inkscape" width="100" height="100">                                    <title>my vector image</title>                                    <!-- Created with Vector Paint - http://www.vectorpaint.yaks.com/ https://chrome.google.com/webstore/detail/hnbpdiengicdefcjecjbnjnoifekhgdo -->                                    <rect id="backgroundrect" width="100%" height="100%" x="0" y="0" fill="#FFFFFF" stroke="none"/>                                <g class="currentLayer" style=""><title>Layer 1</title><rect fill="#6d6d6d" stroke-width="2" stroke-linejoin="round" stroke-dashoffset="" fill-rule="nonzero" id="svg_9" x="-0.113641157746315" y="-0.059044528752565384" width="100.04546356201172" height="104.05903625488281" style="color: rgb(6, 168, 168);" class="" fill-opacity="1"/><path fill="#82a05b" fill-opacity="1" stroke="none" stroke-width="2" stroke-dasharray="none" stroke-linejoin="round" stroke-linecap="butt" stroke-dashoffset="" fill-rule="nonzero" opacity="1" marker-start="" marker-mid="" marker-end="" d="M-5.225444952840318,95.70454578119899 C-5.225444952840318,79.858236060404 19.488703610512143,67.02272518656008 49.99999813316949,67.02272518656008 C80.51129265582685,67.02272518656008 105.2254412191793,79.858236060404 105.2254412191793,95.70454578119899 C105.2254412191793,111.55085550199398 80.51129265582685,124.38636637583791 49.99999813316949,124.38636637583791 C19.488703610512143,124.38636637583791 -5.225444952840318,111.55085550199398 -5.225444952840318,95.70454578119899 z" id="svg_6" class=""/><rect fill="#738e48" fill-opacity="1" stroke="none" stroke-opacity="1" stroke-width="2" stroke-dasharray="none" stroke-linejoin="round" stroke-linecap="butt" stroke-dashoffset="" fill-rule="nonzero" opacity="1" id="svg_12" x="45" y="68.0227279663086" width="10" height="30.65909194946289" style="color: rgb(24, 127, 127);" class=""/><path fill="#f7f0cf" fill-opacity="1" stroke="none" stroke-width="0" stroke-dasharray="none" stroke-linejoin="round" stroke-linecap="butt" stroke-dashoffset="" fill-rule="nonzero" opacity="1" marker-start="" marker-mid="" marker-end="" d="M21.659092304190303,41.045453418170126 C21.659092304190303,25.387492786205286 34.34204041608188,12.704544674313865 50.00000104804656,12.704544674313865 C65.65796168001155,12.704544674313865 78.34090979190282,25.387492786205286 78.34090979190282,41.045453418170126 C78.34090979190282,56.70341405013504 65.65796168001155,69.38636216202647 50.00000104804656,69.38636216202647 C34.34204041608188,69.38636216202647 21.659092304190303,56.70341405013504 21.659092304190303,41.045453418170126 z" id="svg_1" class=""/><path fill="#ffcd4f" fill-opacity="1" stroke="none" stroke-opacity="1" stroke-width="2" stroke-dasharray="none" stroke-linejoin="round" stroke-linecap="butt" stroke-dashoffset="" fill-rule="nonzero" opacity="1" marker-start="" marker-mid="" marker-end="" d="M47.59090855717659,76.3636371908766 C47.59090855717659,75.03264772337165 48.6690100258556,73.95454625469267 49.99999949336052,73.95454625469267 C51.33098896086544,73.95454625469267 52.40909042954445,75.03264772337165 52.40909042954445,76.3636371908766 C52.40909042954445,77.69462665838155 51.33098896086544,78.77272812706053 49.99999949336052,78.77272812706053 C48.6690100258556,78.77272812706053 47.59090855717659,77.69462665838155 47.59090855717659,76.3636371908766 z" id="svg_14" class=""/><path fill="#ffcd4f" fill-opacity="1" stroke="none" stroke-opacity="1" stroke-width="2" stroke-dasharray="none" stroke-linejoin="round" stroke-linecap="butt" stroke-dashoffset="" fill-rule="nonzero" opacity="1" marker-start="" marker-mid="" marker-end="" d="M47.5909088999033,89.31818304639876 C47.5909088999033,87.98719357889381 48.669010368582306,86.90909211021483 49.99999983608723,86.90909211021483 C51.33098930359215,86.90909211021483 52.409090772271156,87.98719357889381 52.409090772271156,89.31818304639876 C52.409090772271156,90.64917251390371 51.33098930359215,91.72727398258269 49.99999983608723,91.72727398258269 C48.669010368582306,91.72727398258269 47.5909088999033,90.64917251390371 47.5909088999033,89.31818304639876 z" class="" id="svg_18"/><path fill="#66562a" stroke-width="2" stroke-linejoin="round" stroke-dashoffset="" fill-rule="nonzero" marker-start="" marker-mid="" marker-end="" id="svg_20" d="M36.8052,-8.27119L50.09994,-8.27379L50.09994,-8.27379C57.19138,-8.27379 62.94014,3.96746 62.94014,19.06781C62.94014,34.16816 57.19138,46.40941 50.09994,46.40941L37.25974,46.40941L36.8052,-8.27119z" style="color: rgb(255, 205, 79);" class="" transform="rotate(-89.67221069335938 50.099937438964844,19.067813873291016) " fill-opacity="1"/><rect fill="#897e4e" stroke-width="2" stroke-linejoin="round" stroke-dashoffset="" fill-rule="nonzero" id="svg_16" x="21.65909194946289" y="19.87587547302246" width="56.68181610107422" height="12.374125480651855" style="color: rgb(255, 205, 79);" class="" filter="" rx="2" ry="2" fill-opacity="1"/><path fill="#ff5602" stroke-width="2" stroke-linejoin="round" stroke-dashoffset="" fill-rule="nonzero" marker-start="" marker-mid="" marker-end="" id="svg_2" d="M49.99903322348575,28.491065234336993 L46.563697146022875,30.9867495031287 L47.876889550239895,26.94972691772658 L44.442326848751236,24.454042648934866 L48.6877742592043,24.4548160249091 L49.8161298055839,20.98351796464524 L50.00019328744706,20.419726879442575 L51.31106556374141,24.454042648934866 L55.5576730381558,24.454042648934866 L52.1215635847187,26.94972691772658 L53.43514267692281,30.98790956709003 L49.99903322348575,28.491065234336993 L49.99903322348575,28.491065234336993 z" style="color: rgb(34, 107, 122);" class="selected" fill-opacity="1"/></g><defs><filter id="f047" inkscape:label="Neon" inkscape:menu="Bevels" inkscape:menu-tooltip="Neon light effect" x="-0.25" y="-0.25" width="1.5" height="1.5" color-interpolation-filters="sRGB">
            <feGaussianBlur stdDeviation="1" result="result1"/>
            <feComposite in="result1" in2="result1" result="result4" operator="in"/>
            <feGaussianBlur stdDeviation="7" result="result6" in="result4"/>
            <feComposite operator="over" in="result6" in2="result4" result="result8"/>
            <feComposite operator="in" result="fbSourceGraphic" in="result6" in2="result8"/>
            <feSpecularLighting specularExponent="45" specularConstant="2" surfaceScale="2.5" lighting-color="#fff" result="result1" in="fbSourceGraphic">
                <fePointLight z="20000" y="-10000" x="-5000"/>
            </feSpecularLighting>
            <feComposite operator="in" result="result2" in="result1" in2="fbSourceGraphic"/>
            <feComposite k3="1.5" k2="1.2" operator="arithmetic" result="result4" in="fbSourceGraphic" in2="result2"/>
            <feComposite operator="over" in="result9" in2="result4" result="result9"/>
            <feBlend mode="screen" in2="result9"/>
        </filter></defs></svg>