<?xml version="1.0" encoding="utf-8"?>
<!-- Generator: Adobe Illustrator 23.0.3, SVG Export Plug-In . SVG Version: 6.00 Build 0)  -->
<svg version="1.1" id="Layer_1" xmlns="http://www.w3.org/2000/svg" xmlns:xlink="http://www.w3.org/1999/xlink" x="0px" y="0px"
	 viewBox="0 0 50 50" style="enable-background:new 0 0 50 50;" xml:space="preserve">
<style type="text/css">
	.st0{fill:#9B9A9A;stroke:#9B9A9A;stroke-width:0.75;stroke-miterlimit:10;}
</style>
<g>
	<path class="st0" d="M6.69,31.05c0.19,0.04,0.44,0.27,0.51,0.48l0.37,0.89c0.08,0.17,0.07,0.51-0.03,0.67l-1.48,2.42
		c-0.32,0.52-0.25,1.25,0.17,1.73l1.25,1.25c0.44,0.39,1.2,0.46,1.71,0.15l2.42-1.48c0.15-0.09,0.48-0.13,0.7-0.02l0.89,0.37
		c0.18,0.06,0.41,0.31,0.45,0.5l0.66,2.75c0.14,0.58,0.7,1.06,1.3,1.12c0,0,0.37,0.03,0.92,0.03c0.55,0,0.92-0.03,0.92-0.03
		c0.6-0.05,1.15-0.54,1.3-1.12l0.66-2.75c0.04-0.19,0.27-0.44,0.48-0.51l0.89-0.37c0.16-0.08,0.52-0.06,0.67,0.03l2.42,1.48
		c0.21,0.13,0.47,0.2,0.74,0.2c0.36,0,0.72-0.13,0.99-0.37l1.25-1.25c0.4-0.45,0.47-1.19,0.15-1.71l-1.48-2.42
		c-0.1-0.16-0.12-0.5-0.02-0.7l0.37-0.89c0.06-0.18,0.31-0.41,0.5-0.45l2.75-0.66c0.58-0.14,1.06-0.7,1.12-1.3
		c0,0,0.03-0.37,0.03-0.92s-0.03-0.92-0.03-0.92c-0.05-0.6-0.54-1.15-1.12-1.3l-2.75-0.66c-0.19-0.04-0.44-0.27-0.51-0.48
		l-0.37-0.89c-0.08-0.17-0.07-0.51,0.03-0.67l1.48-2.42c0.32-0.52,0.25-1.25-0.17-1.73l-1.25-1.25c-0.44-0.39-1.21-0.46-1.71-0.15
		l-2.42,1.48c-0.15,0.09-0.48,0.13-0.7,0.02l-0.89-0.37c-0.18-0.06-0.41-0.31-0.45-0.5l-0.66-2.75c-0.14-0.58-0.7-1.06-1.3-1.12
		c0,0-0.37-0.03-0.92-0.03s-0.92,0.03-0.92,0.03c-0.6,0.05-1.15,0.54-1.3,1.12l-0.66,2.75c-0.04,0.19-0.27,0.44-0.48,0.51
		l-0.89,0.37c-0.16,0.08-0.52,0.06-0.67-0.03L9.19,17.7c-0.5-0.3-1.25-0.25-1.73,0.17l-1.25,1.25c-0.4,0.45-0.47,1.19-0.15,1.71
		l1.48,2.42c0.1,0.16,0.12,0.5,0.02,0.7l-0.37,0.89c-0.06,0.18-0.31,0.41-0.5,0.45l-2.75,0.66c-0.58,0.14-1.06,0.7-1.12,1.3
		c0,0-0.03,0.37-0.03,0.92s0.03,0.92,0.03,0.92c0.05,0.6,0.54,1.15,1.12,1.3L6.69,31.05z M3.84,28.18c0-0.48,0.03-0.81,0.03-0.82
		c0.01-0.14,0.17-0.33,0.31-0.36l2.75-0.66c0.53-0.13,1.07-0.62,1.24-1.11l0.34-0.83c0.24-0.49,0.21-1.22-0.08-1.69l-1.48-2.41
		c-0.07-0.12-0.05-0.35,0.02-0.43l1.21-1.21c0.1-0.09,0.34-0.11,0.45-0.04l2.42,1.48c0.46,0.28,1.24,0.3,1.66,0.09l0.83-0.34
		c0.52-0.18,1.01-0.72,1.14-1.25l0.66-2.75c0.03-0.14,0.22-0.3,0.36-0.31c0.01,0,0.34-0.03,0.82-0.03s0.81,0.03,0.82,0.03
		c0.14,0.01,0.33,0.17,0.36,0.31l0.66,2.75c0.13,0.53,0.62,1.07,1.11,1.24l0.83,0.34c0.48,0.24,1.23,0.2,1.69-0.08l2.41-1.48
		c0.11-0.07,0.37-0.03,0.43,0.02l1.21,1.21c0.09,0.1,0.11,0.33,0.04,0.45l-1.48,2.42c-0.29,0.47-0.32,1.2-0.09,1.66l0.34,0.83
		c0.18,0.52,0.72,1.01,1.25,1.14l2.75,0.66c0.14,0.03,0.3,0.22,0.31,0.36c0,0.01,0.03,0.34,0.03,0.82S29.2,28.99,29.2,29
		c-0.01,0.14-0.17,0.33-0.31,0.36l-2.75,0.66c-0.53,0.13-1.07,0.62-1.24,1.11l-0.34,0.83c-0.24,0.49-0.21,1.22,0.08,1.69l1.48,2.41
		c0.07,0.12,0.05,0.35-0.02,0.43l-1.21,1.21c-0.06,0.05-0.16,0.08-0.27,0.08c-0.07,0-0.14-0.02-0.19-0.04l-2.42-1.48
		c-0.46-0.28-1.24-0.3-1.66-0.09l-0.83,0.34c-0.52,0.18-1.01,0.72-1.14,1.25l-0.66,2.75c-0.03,0.14-0.22,0.3-0.36,0.31
		c-0.01,0-0.34,0.03-0.82,0.03s-0.81-0.03-0.82-0.03c-0.14-0.01-0.33-0.17-0.36-0.31l-0.66-2.75c-0.13-0.53-0.62-1.07-1.11-1.24
		l-0.83-0.34c-0.22-0.11-0.48-0.16-0.76-0.16c-0.35,0-0.68,0.09-0.93,0.24l-2.41,1.48c-0.11,0.07-0.37,0.03-0.43-0.02l-1.21-1.21
		c-0.09-0.1-0.11-0.33-0.04-0.45l1.48-2.42c0.29-0.47,0.32-1.2,0.09-1.66l-0.34-0.83c-0.18-0.52-0.72-1.01-1.25-1.14l-2.75-0.66
		c-0.14-0.03-0.3-0.22-0.31-0.36C3.87,28.99,3.84,28.66,3.84,28.18z"/>
	<path class="st0" d="M16.53,33.99c3.21,0,5.82-2.61,5.82-5.82s-2.61-5.82-5.82-5.82s-5.82,2.61-5.82,5.82S13.33,33.99,16.53,33.99z
		 M16.53,23.42c2.62,0,4.76,2.14,4.76,4.76s-2.14,4.76-4.76,4.76s-4.76-2.14-4.76-4.76S13.91,23.42,16.53,23.42z"/>
	<path class="st0" d="M31.85,13.7c-0.04,0.06-0.2,0.15-0.27,0.15l-1.97-0.02c-0.48,0-0.96,0.34-1.11,0.79c0,0-0.09,0.25-0.18,0.62
		c-0.1,0.38-0.14,0.64-0.14,0.64c-0.07,0.48,0.19,1,0.62,1.23l1.74,0.91c0.07,0.03,0.16,0.18,0.18,0.29l0.1,0.67
		c0.02,0.07-0.03,0.24-0.09,0.3l-1.4,1.37c-0.35,0.34-0.44,0.93-0.2,1.39l0.63,1.06c0.27,0.39,0.85,0.59,1.3,0.45l1.93-0.59
		c0.1,0,0.21,0.04,0.27,0.09l0.54,0.4c0.06,0.04,0.15,0.2,0.15,0.27l-0.02,1.96c0,0.48,0.33,0.97,0.79,1.12c0,0,0.25,0.09,0.62,0.18
		c0.38,0.1,0.64,0.14,0.64,0.14c0.03,0,0.14,0.01,0.16,0.01c0.43,0,0.87-0.26,1.06-0.63l0.91-1.74c0.03-0.07,0.18-0.16,0.29-0.18
		l0.7-0.1c0.11,0,0.23,0.05,0.27,0.09l1.37,1.4c0.33,0.34,0.89,0.46,1.39,0.2l1.06-0.63c0.4-0.27,0.6-0.84,0.45-1.3l-0.58-1.87
		c-0.02-0.07,0.01-0.25,0.08-0.33l0.4-0.54c0.04-0.06,0.2-0.15,0.27-0.15l1.97,0.02c0.48,0,0.96-0.34,1.11-0.79
		c0,0,0.09-0.25,0.18-0.62c0.1-0.38,0.14-0.64,0.14-0.64c0.07-0.48-0.19-1-0.62-1.23l-1.74-0.91c-0.07-0.03-0.16-0.18-0.18-0.29
		l-0.1-0.67c-0.02-0.07,0.03-0.24,0.09-0.3l1.4-1.37c0.35-0.34,0.44-0.93,0.2-1.39l-0.63-1.06c-0.27-0.39-0.85-0.6-1.3-0.45
		l-1.93,0.59c-0.1,0-0.21-0.04-0.27-0.09l-0.54-0.4c-0.06-0.04-0.15-0.2-0.15-0.27l0.02-1.96c0-0.48-0.33-0.97-0.79-1.12
		c0,0-0.25-0.09-0.62-0.18c-0.38-0.1-0.64-0.14-0.64-0.14c-0.03,0-0.14-0.01-0.16-0.01c-0.43,0-0.87,0.26-1.06,0.63l-0.91,1.74
		c-0.03,0.07-0.18,0.16-0.29,0.18l-0.7,0.1c-0.11,0-0.23-0.05-0.27-0.09l-1.37-1.4c-0.33-0.34-0.89-0.46-1.39-0.2L32.2,9.66
		c-0.4,0.27-0.6,0.84-0.45,1.3l0.58,1.87c0.02,0.07-0.01,0.25-0.08,0.33L31.85,13.7z M32.71,14.31l0.36-0.49
		c0.28-0.34,0.39-0.88,0.26-1.3l-0.58-1.87c-0.01-0.03,0.02-0.1,0.01-0.1l1-0.6l0.12,0.02l1.37,1.4c0.24,0.25,0.64,0.41,1.02,0.41
		c0.09,0,0.17-0.01,0.22-0.02l0.61-0.09c0.44-0.04,0.9-0.35,1.1-0.73l0.91-1.73c0.02-0.03,0.08-0.06,0.13-0.06
		c0.01,0,0.23,0.04,0.54,0.12c0.31,0.08,0.52,0.15,0.53,0.15c0.03,0.01,0.08,0.08,0.08,0.12l-0.02,1.96c0,0.44,0.26,0.93,0.6,1.15
		l0.49,0.36c0.33,0.28,0.89,0.39,1.3,0.26l1.88-0.58c0.04,0,0.09,0.03,0.09,0.01l0.6,1c0.01,0.03,0,0.1-0.02,0.12l-1.4,1.37
		c-0.31,0.31-0.47,0.84-0.39,1.24l0.09,0.61c0.04,0.44,0.35,0.9,0.74,1.1l1.73,0.91c0.03,0.02,0.07,0.09,0.06,0.13
		c0,0.01-0.04,0.23-0.12,0.54c-0.08,0.31-0.15,0.52-0.15,0.53c-0.01,0.03-0.08,0.08-0.12,0.08l-1.97-0.02
		c-0.43,0-0.92,0.26-1.14,0.6l-0.36,0.49c-0.28,0.34-0.39,0.88-0.26,1.3l0.58,1.87c0.01,0.03-0.02,0.1-0.01,0.1l-1,0.6l-0.12-0.02
		l-1.37-1.4c-0.24-0.25-0.64-0.41-1.02-0.41c-0.09,0-0.17,0.01-0.22,0.02l-0.61,0.09c-0.44,0.04-0.9,0.35-1.1,0.73l-0.91,1.73
		c-0.02,0.03-0.08,0.06-0.13,0.06l0,0c-0.01,0-0.23-0.04-0.54-0.12c-0.31-0.08-0.52-0.15-0.53-0.15c-0.03-0.01-0.08-0.08-0.08-0.12
		l0.02-1.96c0-0.44-0.26-0.93-0.6-1.15l-0.49-0.36c-0.23-0.2-0.58-0.32-0.93-0.32c-0.13,0-0.26,0.02-0.38,0.05l-1.88,0.58
		c-0.05,0-0.1-0.02-0.09-0.01l-0.6-1c-0.01-0.03,0-0.1,0.02-0.12l1.4-1.37c0.31-0.31,0.47-0.84,0.39-1.24l-0.09-0.61
		c-0.04-0.44-0.35-0.9-0.74-1.1l-1.73-0.91c-0.03-0.02-0.07-0.09-0.06-0.13c0-0.01,0.04-0.23,0.12-0.54
		c0.08-0.31,0.15-0.52,0.15-0.53c0.01-0.03,0.08-0.08,0.12-0.08l1.97,0.02C32.01,14.91,32.49,14.64,32.71,14.31z"/>
	<path class="st0" d="M37.69,20.77c1.75,0,3.17-1.42,3.17-3.17s-1.42-3.17-3.17-3.17s-3.17,1.42-3.17,3.17S35.94,20.77,37.69,20.77z
		 M37.69,15.48c1.17,0,2.12,0.95,2.12,2.12c0,1.17-0.95,2.12-2.12,2.12c-1.17,0-2.12-0.95-2.12-2.12
		C35.57,16.43,36.52,15.48,37.69,15.48z"/>
</g>
</svg>
