<?xml version="1.0" encoding="utf-8"?>
<!-- Generator: Adobe Illustrator 23.0.3, SVG Export Plug-In . SVG Version: 6.00 Build 0)  -->
<svg version="1.1" id="Layer_1" xmlns="http://www.w3.org/2000/svg" xmlns:xlink="http://www.w3.org/1999/xlink" x="0px" y="0px"
	 viewBox="0 0 50 50" style="enable-background:new 0 0 50 50;" xml:space="preserve">
<style type="text/css">
	.st0{fill:#FFFFFF;}
</style>
<rect x="0.18" width="50" height="50"/>
<g>
	<path class="st0" d="M34.15,18.75c0.75-1.31,1.19-2.81,1.19-4.37c0-5.18-4.62-9.36-10.24-9.36S14.86,9.2,14.86,14.38
		c0,1.56,0.44,3.06,1.19,4.37c-0.69,0.5-1.19,1.31-1.19,2.18c0,1.56,1.37,2.81,3.06,2.81c0.19,0,0.31,0,0.44-0.06
		c-0.19,0.44-0.44,1-0.44,1.25c-0.25,1.12,1,2.12,2.31,2.12c0,0,0.62,0.06,0.75-0.06c0.5-0.44,0-2.37,0-2.37
		c0-0.31,0.31-0.62,0.62-0.62c0.37,0,0.62,0.25,0.62,0.62c0,0-0.5,2,0,2.43c0.37,0.37,1.81,0.37,2.18,0c0.5-0.44,0-2.43,0-2.43
		c0-0.31,0.31-0.62,0.62-0.62c0.31,0,0.62,0.25,0.62,0.62c0,0-0.5,2,0,2.43c0.37,0.37,1.81,0.37,2.18,0c0.5-0.44,0-2.43,0-2.43
		c0-0.31,0.31-0.62,0.62-0.62c0.37,0,0.62,0.25,0.62,0.62c0,0-0.5,1.93,0,2.37c0.12,0.12,0.75,0.06,0.75,0.06
		c1.25,0,2.5-0.94,2.31-2.12c-0.06-0.25-0.25-0.81-0.5-1.25c0.12,0,0.31,0.06,0.5,0.06c1.69,0,3.06-1.25,3.06-2.81
		C35.33,20.06,34.83,19.31,34.15,18.75 M19.6,19.31c-1.12-0.75-4.12-3.99-1.69-4.12c1.5-0.06,5.18,1.19,5.43,2.56
		C23.47,18.63,20.73,20.06,19.6,19.31 M26.84,22.25c-0.56,0.56-2.75,0.56-3.31,0c-0.56-0.5,0.37-0.87,0.69-1.44
		c0.37-0.62,0.56-1.19,1-1.19s0.62,0.56,1,1.19C26.47,21.31,27.34,21.75,26.84,22.25 M30.71,19.31c-1.12,0.75-3.93-0.69-3.75-1.62
		c0.25-1.37,3.87-2.62,5.43-2.56C34.83,15.32,31.9,18.5,30.71,19.31"/>
	<path class="st0" d="M42.26,37.16c-1.37-0.75-2.31-0.19-2.31-0.19c-0.94,0.56-2.56,0.62-3.56,0.06l-7.68-4.06l7.68-4.06
		c1-0.5,2.56-0.5,3.56,0.06c0,0,0.94,0.56,2.31-0.19c1.5-0.81,2-2.5,1.12-3.87l-0.31-0.44c-0.5-0.31-0.94-1.06-1-1.56l-0.31-0.44
		c-0.87-1.37-2.75-1.81-4.24-1.06c-1.37,0.75-1.37,1.75-1.37,1.75c0.06,1.06-0.69,2.31-1.69,2.87l-9.49,4.99l-9.49-4.99
		c-1-0.5-1.75-1.81-1.69-2.87c0,0,0.06-1-1.37-1.75c-1.5-0.81-3.37-0.31-4.24,1.06l-0.31,0.44c-0.06,0.56-0.5,1.25-1,1.56
		l-0.31,0.44c-0.87,1.37-0.37,3.12,1.12,3.87c1.37,0.75,2.31,0.19,2.31,0.19c0.94-0.56,2.56-0.62,3.56-0.06l7.68,4.06l-7.68,4.06
		c-1,0.5-2.56,0.5-3.56-0.06c0,0-0.94-0.56-2.31,0.19c-1.5,0.81-2,2.5-1.12,3.87l0.31,0.44c0.69,0.37,1.12,1.06,1.19,1.62l0.31,0.44
		c0.87,1.37,2.75,1.81,4.24,1.06c1.37-0.75,1.37-1.75,1.37-1.75c-0.06-1.06,0.69-2.31,1.69-2.87l9.49-4.99l9.49,4.99
		c1,0.5,1.75,1.81,1.69,2.87c0,0-0.06,1,1.37,1.75c1.5,0.81,3.37,0.31,4.24-1.06l0.31-0.44c0.06-0.56,0.5-1.25,1-1.56l0.31-0.44
		C44.26,39.72,43.76,37.97,42.26,37.16"/>
</g>
</svg>
