<?xml version="1.0" encoding="utf-8"?>
<!-- Generator: Adobe Illustrator 23.0.3, SVG Export Plug-In . SVG Version: 6.00 Build 0)  -->
<svg version="1.1" id="Layer_1" xmlns="http://www.w3.org/2000/svg" xmlns:xlink="http://www.w3.org/1999/xlink" x="0px" y="0px"
	 viewBox="0 0 32 32" style="enable-background:new 0 0 32 32;" xml:space="preserve">
<style type="text/css">
	.st0{display:none;}
	.st1{fill:#FFFFFF;}
	.st2{fill:none;stroke:#FFFFFF;stroke-width:1.5353;stroke-miterlimit:10;}
</style>
<rect class="st0" width="32" height="32"/>
<g>
	<g>
		<path class="st1" d="M6.4,7v17.3c0,2.3,1.9,4.2,4.2,4.2h11c2.3,0,4.2-1.9,4.2-4.2V7H6.4z M16.1,24c-2.6,0-4.7-2.1-4.7-4.7
			c0-2.6,2.1-4.7,4.7-4.7s4.7,2.1,4.7,4.7C20.8,21.9,18.7,24,16.1,24z"/>
		<rect x="3.4" y="6.3" transform="matrix(0.7071 -0.7071 0.7071 0.7071 -3.8809 8.4222)" class="st1" width="9.6" height="5.3"/>
		<rect x="19.1" y="6.3" transform="matrix(0.7071 0.7071 -0.7071 0.7071 13.3006 -14.319)" class="st1" width="9.6" height="5.3"/>
	</g>
	<circle class="st1" cx="16.1" cy="19.3" r="2.9"/>
	<path class="st2" d="M8.2,16v9.4c-2.6,0-4.7-2.1-4.7-4.7C3.5,18.1,5.6,16,8.2,16z"/>
	<path class="st2" d="M28.6,20.8c0,2.6-2.1,4.7-4.7,4.7c-0.2,0-0.3,0-0.5,0v-9.4c0.2,0,0.3,0,0.5,0C26.5,16,28.6,18.1,28.6,20.8z"/>
	<line class="st2" x1="7.3" y1="2.9" x2="2.8" y2="7.5"/>
	<line class="st2" x1="24.7" y1="2.7" x2="29.1" y2="7"/>
</g>
</svg>
