<svg xmlns="http://www.w3.org/2000/svg" viewBox="0 0 30.53 30.53"><title>fuel_tank_icon</title><path d="M28.15,30.27H4a2.16,2.16,0,0,1-2.17-2.15V3.89A2.16,2.16,0,0,1,4,1.74H28.15a2.16,2.16,0,0,1,2.17,2.15V28.12A2.16,2.16,0,0,1,28.15,30.27Z" transform="translate(-0.79 -0.74)" style="fill:none;stroke:#fff;stroke-miterlimit:10;stroke-width:2px"/><text transform="translate(3.29 24.24) scale(1.03 1)" style="isolation:isolate;font-size:9px;fill:#fff;font-family:Arial-BoldMT, Arial;font-weight:700">FUE<tspan x="18" y="0" style="letter-spacing:-0.01811784745379465em">L</tspan></text><path d="M2.07,14.94c.82-1,5-2,6.42-2,1.69,0,5.07,1.57,6.91,1.8,2.37.3,3.07-2.14,5.34-1.8,1.79.27,2.31,1.93,4.5,2A32.5,32.5,0,0,0,30,13.64" transform="translate(-0.79 -0.74)" style="fill:none;stroke:#fff;stroke-miterlimit:10;stroke-width:2px"/></svg>