<?xml version="1.0" encoding="utf-8"?>
<!-- Generator: Adobe Illustrator 23.0.3, SVG Export Plug-In . SVG Version: 6.00 Build 0)  -->
<svg version="1.1" id="Layer_1" xmlns="http://www.w3.org/2000/svg" xmlns:xlink="http://www.w3.org/1999/xlink" x="0px" y="0px"
	 viewBox="0 0 32 32" style="enable-background:new 0 0 32 32;" xml:space="preserve">
<style type="text/css">
	.st0{display:none;}
	.st1{fill:none;stroke:#FFFFFF;stroke-miterlimit:10;}
	.st2{fill:none;stroke:#FFFFFF;stroke-width:1.0163;stroke-miterlimit:10;}
	.st3{fill:none;stroke:#FFFFFF;stroke-width:1.0296;stroke-miterlimit:10;}
</style>
<rect class="st0" width="32" height="32"/>
<g>
	<g>
		<polygon class="st1" points="19.4,19.3 19.4,29.7 12.4,29.7 12.4,19.3 13.6,16.2 13.6,11.3 18.3,11.3 18.3,16.2 		"/>
		<path class="st1" d="M17.5,11.3h-3.3c0-1.3,0.7-8.9,1.6-8.9C16.8,2.3,17.5,9.9,17.5,11.3z"/>
	</g>
	<g>
		<polygon class="st1" points="9.6,19.3 9.6,29.7 2.5,29.7 2.5,19.3 3.7,16.2 3.7,11.3 8.4,11.3 8.4,16.2 		"/>
		<path class="st1" d="M7.7,11.3H4.4c0-1.3,0.7-8.9,1.6-8.9C6.9,2.3,7.7,9.9,7.7,11.3z"/>
	</g>
	<g>
		<polygon class="st1" points="29.5,19.3 29.5,29.7 22.4,29.7 22.4,19.3 23.6,16.2 23.6,11.3 28.3,11.3 28.3,16.2 		"/>
		<path class="st1" d="M27.6,11.3h-3.3c0-1.3,0.7-8.9,1.6-8.9C26.9,2.3,27.6,9.9,27.6,11.3z"/>
	</g>
	<rect x="8.4" y="13.3" class="st1" width="5.2" height="2.4"/>
	<rect x="18.3" y="13.3" class="st2" width="5.3" height="2.4"/>
	<rect x="9.6" y="24.2" class="st2" width="2.8" height="2.4"/>
	<rect x="19.4" y="24.2" class="st3" width="3" height="2.4"/>
	<line class="st2" x1="13.6" y1="14.5" x2="18.3" y2="14.5"/>
	<line class="st2" x1="8.4" y1="14.5" x2="3.7" y2="14.5"/>
	<line class="st2" x1="23.6" y1="14.5" x2="28.3" y2="14.5"/>
	<line class="st2" x1="22.4" y1="25.5" x2="29.5" y2="25.5"/>
	<line class="st2" x1="19.4" y1="25.5" x2="12.4" y2="25.5"/>
	<line class="st2" x1="9.6" y1="25.5" x2="2.5" y2="25.5"/>
</g>
</svg>
