<?xml version="1.0" encoding="utf-8"?>
<!-- Generator: Adobe Illustrator 23.0.3, SVG Export Plug-In . SVG Version: 6.00 Build 0)  -->
<svg version="1.1" id="Layer_1" xmlns="http://www.w3.org/2000/svg" xmlns:xlink="http://www.w3.org/1999/xlink" x="0px" y="0px"
	 viewBox="0 0 32 32" style="enable-background:new 0 0 32 32;" xml:space="preserve">
<style type="text/css">
	.st0{display:none;}
	.st1{fill:none;stroke:#FFFFFF;stroke-miterlimit:10;}
	.st2{fill:none;stroke:#FFFFFF;stroke-width:2;stroke-miterlimit:10;}
</style>
<rect class="st0" width="32" height="32"/>
<path class="st1" d="M25.6,14.2c0.3,0.6,0.4,1.3,0.4,2c0,2.9-2.3,5.3-5.3,5.3c-1.1,0-2.1-0.3-2.9-0.9c-0.5,1.7-2,2.9-3.8,2.9
	c-0.5,0-1-0.1-1.5-0.3v0c0,1.2-0.9,2.1-2,2.2c-0.1,0-0.2,0-0.3,0c-0.8,0-1.5-0.4-1.9-1C8.1,24.1,8,23.7,8,23.3C8,22,9,21,10.3,21h0
	c-0.2-0.5-0.3-1-0.3-1.5c0-1.5,0.8-2.8,2.1-3.5c-2.1-0.9-3.6-3-3.6-5.5c0-3.3,2.7-6,6-6c0.9,0,1.7,0.2,2.5,0.5c1.1-1.8,3.2-3,5.5-3
	C26.1,2,29,4.9,29,8.5C29,11,27.6,13.1,25.6,14.2z"/>
<path class="st2" d="M10.5,26.5v3h-8v-5h4.9c0.4,0.6,2.1,2,2.9,2C10.3,26.5,10.4,26.5,10.5,26.5z"/>
</svg>
