<?xml version="1.0" encoding="utf-8"?>
<svg viewBox="0 0 1920 1080" width="1920" height="1080" xmlns="http://www.w3.org/2000/svg" xmlns:bx="https://boxy-svg.com" id="MainScreen">





  <g id="SvgLayer2" transform="matrix(0.868634, 0.162749, -0.162749, 0.868634, 147.576767, 82.613022)" style="">
    <path d="M 508.844 454.221 L 531.774 457.216 L 554.82 454.221 L 554.82 453.247 L 554.82 452.273 L 531.832 453.583 L 508.844 452.273 L 508.844 453.247 L 508.844 454.221 Z" style="fill: rgb(97, 49, 49);" transform="matrix(0, 1, -1, 0, 986.576502, -77.087484)"/>
    <path d="M 363.931 454.82 L 386.861 451.825 L 409.907 454.82 L 409.907 455.794 L 409.907 456.768 L 386.919 455.458 L 363.931 456.768 L 363.931 455.794 L 363.931 454.82 Z" style="fill: rgb(97, 49, 49);" transform="matrix(0, 1, -1, 0, 841.215513, 67.377504)"/>
    <path d="M 354.047 476.235 L 460.08 472.402 L 566.645 476.235 L 566.645 477.482 L 566.645 478.729 L 460.346 477.052 L 354.047 478.729 L 354.047 477.482 L 354.047 476.235 Z" style="fill: rgb(122, 60, 60);"/>
    <path d="M 439.906 434.519 L 458.753 465.068 L 478.596 434.519 L 478.596 433.545 L 478.596 432.571 L 459.1 458.058 L 439.906 432.571 L 439.906 433.545 L 439.906 434.519 Z" style="fill: rgb(97, 49, 49);" transform="matrix(0.999994, 0.003507, -0.003507, 0.999994, 1.576834, -1.607833)"/>
    <path d="M 458.643 422.358 L 459.241 422.358 L 460.241 457.697 L 457.643 457.697 L 458.643 422.358 Z" style="fill: rgb(97, 49, 49);"/>
    <path d="M 421.392 450.197 L 458.978 452.738 L 496.752 450.197 L 496.752 449.371 L 496.752 448.544 L 459.072 449.656 L 421.392 448.544 L 421.392 449.371 L 421.392 450.197 Z" style="fill: rgb(122, 60, 60);"/>
    <path d="M 443.635 444.683 L 458.939 440.52 L 473.779 444.525 L 478.491 457.797 L 474.228 472.907 L 459.418 476.929 L 443.585 473.259 L 438.828 457.973 L 443.635 444.683 Z" style="fill: rgb(137, 78, 78);"/>
    <path d="M 352.591 431.871 L 458.624 435.704 L 565.189 431.871 L 565.189 430.624 L 565.189 429.377 L 458.89 431.054 L 352.591 429.377 L 352.591 430.624 L 352.591 431.871 Z" style="fill: rgb(122, 60, 60);"/>
    <ellipse style="fill: rgb(111, 69, 69);" cx="460.669" cy="459.267" rx="6.948" ry="6.948" transform="matrix(0.965926, 0.258819, -0.258819, 0.965926, 133.067989, -103.460299)"/>
  </g>


</svg>