<?xml version="1.0" encoding="utf-8"?>
<svg viewBox="0 0 1920 1080" width="1920" height="1080" xmlns="http://www.w3.org/2000/svg" xmlns:bx="https://boxy-svg.com" id="MainScreen">
  <defs>
    <linearGradient gradientUnits="userSpaceOnUse" x1="468.206" y1="636.287" x2="468.206" y2="670.545" id="gradient-0" spreadMethod="pad" gradientTransform="matrix(1.152848, -0.956119, 0.837149, 1.82629, -613.902015, -70.891215)">
      <stop offset="0" style="stop-color: rgb(249, 255, 138);"/>
      <stop offset="1" style="stop-color: rgba(66, 42, 42, 0);"/>
    </linearGradient>
  </defs>



  <g id="SvgLayer4">
    <path d="M -224.392 898.654 L 103.194 859.894 L 400.798 831.129 L 805.327 861.391 L 1163.217 951.62 L 1452.118 1146.576 L 758.227 1163.297 L -51.241 1101.77 L -224.392 898.654 Z" style="fill: rgb(201, 217, 227);"/>
  <g transform="matrix(1, 0, 0, 1, -178.936905, -27.83379)">
    <path d="M 435.731 851.313 L 651.527 851.313 C 667.689 851.313 686.303 851.369 686.304 867.531 C 686.304 883.693 651.689 907.84 635.527 907.84 L 418.731 909.84 C 402.569 909.84 384.484 884.192 384.723 867.253 C 384.962 850.314 419.569 851.313 435.731 851.313 Z" style="fill: rgb(141, 141, 141);" transform="matrix(0.956305, -0.292372, 0.292372, 0.956305, -234.054839, 195.045593)"/>
    <path d="M 413.719 929.251 L 464.93 929.251 L 446.876 946.53 L 422.917 943.17 L 413.719 929.251 Z" style="fill: rgb(141, 141, 141);"/>
    <path d="M 662.477 813.772 L 685.89 817.479 L 677.658 846.248 L 653.699 842.888 L 662.477 813.772 Z" style="fill: rgb(91, 91, 91);"/>
    <path d="M 455.379 854.472 L 671.175 854.472 C 687.337 854.472 705.951 854.528 705.952 870.69 C 705.952 886.852 671.337 910.999 655.175 910.999 L 438.379 912.999 C 422.217 912.999 404.132 887.351 404.371 870.412 C 404.61 853.473 439.217 854.472 455.379 854.472 Z" style="fill: rgb(132, 132, 132);" transform="matrix(0.956305, -0.292372, 0.292372, 0.956305, -234.119918, 200.928146)"/>
  </g>
  <g transform="matrix(1, 0, 0, 1, -49.482422, -24.013529)">
    <path d="M 282.965 858.746 L 466.841 872.943 L 491.243 944.115 L 307.101 919.249 L 282.965 858.746 Z" style="fill: rgb(114, 138, 103);"/>
    <path d="M 464.72 871.959 L 704.075 813.061 L 690.714 880.952 L 489.945 942.641 L 464.72 871.959 Z" style="fill: rgb(130, 152, 119);"/>
    <path d="M 281.073 858.974 L 520.901 807.304 L 705.175 813.216 L 463.776 875.405 L 281.073 858.974 Z" style="fill: rgb(147, 172, 134);"/>
  </g>
  <g transform="matrix(1, 0, 0, 1, 6.488941, -5.840052)">
    <path d="M 435.731 851.313 L 651.527 851.313 C 667.689 851.313 686.303 851.369 686.304 867.531 C 686.304 883.693 651.689 907.84 635.527 907.84 L 418.731 909.84 C 402.569 909.84 384.484 884.192 384.723 867.253 C 384.962 850.314 419.569 851.313 435.731 851.313 Z" style="fill: rgb(141, 141, 141);" transform="matrix(0.956305, -0.292372, 0.292372, 0.956305, -234.054839, 195.045593)"/>
    <path d="M 413.719 929.251 L 464.93 929.251 L 446.876 946.53 L 422.917 943.17 L 413.719 929.251 Z" style="fill: rgb(141, 141, 141);"/>
    <path d="M 662.477 813.772 L 685.89 817.479 L 677.658 846.248 L 653.699 842.888 L 662.477 813.772 Z" style="fill: rgb(141, 141, 141);"/>
    <path d="M 455.379 854.472 L 671.175 854.472 C 687.337 854.472 705.951 854.528 705.952 870.69 C 705.952 886.852 671.337 910.999 655.175 910.999 L 438.379 912.999 C 422.217 912.999 404.132 887.351 404.371 870.412 C 404.61 853.473 439.217 854.472 455.379 854.472 Z" style="fill: rgb(153, 153, 153);" transform="matrix(0.956305, -0.292372, 0.292372, 0.956305, -234.119918, 200.928146)"/>
  </g>
  <g transform="matrix(1.235516, -0.077378, 0.055301, 0.883007, 33.716698, -306.910065)" style="">
    <g transform="matrix(1, 0, 0, 1, 210.838181, 41.034012)"/>
    <g transform="matrix(1.764485, -0.120881, 0.120881, 1.764485, -987.339355, -254.761124)" style="">
      <ellipse style="fill: rgb(144, 144, 144);" cx="670.495" cy="919.504" rx="37.108" ry="10.365"/>
      <line style="stroke-linecap: round; stroke-width: 11px; fill: rgb(255, 246, 246); stroke: rgb(203, 203, 203);" x1="669.751" y1="911.315" x2="671.257" y2="875.921" transform="matrix(0.996304, 0.071394, -0.036714, 1.001079, 35.285818, -48.833778)"/>
      <path d="M 670.446 927.77 C 654.695 927.77 641.698 924.607 639.807 920.52 C 639.787 920.07 639.777 919.618 639.777 919.163 C 639.777 902.263 653.477 888.563 670.377 888.563 C 687.277 888.563 700.977 902.263 700.977 919.163 C 700.977 919.715 700.962 920.263 700.934 920.807 C 698.581 924.754 685.827 927.77 670.446 927.77 Z" style="fill: rgb(179, 179, 179);"/>
    </g>
  </g>
</g>
  <line style="fill: rgb(216, 216, 216); stroke-width: 15px; stroke-linecap: round; stroke-linejoin: round; stroke-dasharray: 2px; stroke: url(#gradient-0); paint-order: fill markers;" x1="458.892" y1="644.569" x2="486.642" y2="706.98" transform="matrix(0.936159, 0.351577, -0.351577, 0.936159, 267.768646, -123.071838)"/>

</svg>