<?xml version="1.0" encoding="utf-8"?>
<svg viewBox="0 0 1920 1080" width="1920" height="1080" xmlns="http://www.w3.org/2000/svg" xmlns:bx="https://boxy-svg.com" id="MainScreen">
  <defs>
    <linearGradient gradientUnits="userSpaceOnUse" x1="468.206" y1="636.287" x2="468.206" y2="670.545" id="gradient-0" spreadMethod="pad" gradientTransform="matrix(1.152848, -0.956119, 0.837149, 1.82629, -613.902015, -70.891215)">
      <stop offset="0" style="stop-color: rgb(249, 255, 138);"/>
      <stop offset="1" style="stop-color: rgba(66, 42, 42, 0);"/>
    </linearGradient>
  </defs>
  <rect y="-0.038" width="1920" height="1080" style="fill: rgb(50, 125, 196);" x="0.174"/>
   <rect y="659.085" width="1920" height="434.915" style="fill: rgb(0, 79, 136);" bx:origin="0.5 0.120658"/>



<g id="SvgLayer3">
  <path d="M 1575.589 910.385 C 1575.589 910.385 2148.437 869.659 2113.626 887.064 L 2110.294 1126.933 L 1012.565 1086.955 L 1575.589 910.385 Z" style="fill: rgb(98, 104, 101);" transform="matrix(1, 0, 0, 1, -85.843109, 24.853333)"/>
  <path d="M 1575.589 942.034 C 1575.589 942.034 2068.481 896.311 2033.67 913.716 L 2003.686 1120.27 L 1115.841 1130.265 L 1575.589 942.034 Z" style="fill: rgb(135, 175, 173);"/>
  </g>
  <g id="SvgLayer4">
    <path d="M -224.392 898.654 L 103.194 859.894 L 400.798 831.129 L 805.327 861.391 L 1163.217 951.62 L 1452.118 1146.576 L 758.227 1163.297 L -51.241 1101.77 L -224.392 898.654 Z" style="fill: rgb(201, 217, 227);"/>
  <g transform="matrix(1, 0, 0, 1, -178.936905, -27.83379)">
    <path d="M 435.731 851.313 L 651.527 851.313 C 667.689 851.313 686.303 851.369 686.304 867.531 C 686.304 883.693 651.689 907.84 635.527 907.84 L 418.731 909.84 C 402.569 909.84 384.484 884.192 384.723 867.253 C 384.962 850.314 419.569 851.313 435.731 851.313 Z" style="fill: rgb(141, 141, 141);" transform="matrix(0.956305, -0.292372, 0.292372, 0.956305, -234.054839, 195.045593)"/>
    <path d="M 413.719 929.251 L 464.93 929.251 L 446.876 946.53 L 422.917 943.17 L 413.719 929.251 Z" style="fill: rgb(141, 141, 141);"/>
    <path d="M 662.477 813.772 L 685.89 817.479 L 677.658 846.248 L 653.699 842.888 L 662.477 813.772 Z" style="fill: rgb(91, 91, 91);"/>
    <path d="M 455.379 854.472 L 671.175 854.472 C 687.337 854.472 705.951 854.528 705.952 870.69 C 705.952 886.852 671.337 910.999 655.175 910.999 L 438.379 912.999 C 422.217 912.999 404.132 887.351 404.371 870.412 C 404.61 853.473 439.217 854.472 455.379 854.472 Z" style="fill: rgb(132, 132, 132);" transform="matrix(0.956305, -0.292372, 0.292372, 0.956305, -234.119918, 200.928146)"/>
  </g>
  <g transform="matrix(1, 0, 0, 1, -49.482422, -24.013529)">
    <path d="M 282.965 858.746 L 466.841 872.943 L 491.243 944.115 L 307.101 919.249 L 282.965 858.746 Z" style="fill: rgb(114, 138, 103);"/>
    <path d="M 464.72 871.959 L 704.075 813.061 L 690.714 880.952 L 489.945 942.641 L 464.72 871.959 Z" style="fill: rgb(130, 152, 119);"/>
    <path d="M 281.073 858.974 L 520.901 807.304 L 705.175 813.216 L 463.776 875.405 L 281.073 858.974 Z" style="fill: rgb(147, 172, 134);"/>
  </g>
  <g transform="matrix(1, 0, 0, 1, 6.488941, -5.840052)">
    <path d="M 435.731 851.313 L 651.527 851.313 C 667.689 851.313 686.303 851.369 686.304 867.531 C 686.304 883.693 651.689 907.84 635.527 907.84 L 418.731 909.84 C 402.569 909.84 384.484 884.192 384.723 867.253 C 384.962 850.314 419.569 851.313 435.731 851.313 Z" style="fill: rgb(141, 141, 141);" transform="matrix(0.956305, -0.292372, 0.292372, 0.956305, -234.054839, 195.045593)"/>
    <path d="M 413.719 929.251 L 464.93 929.251 L 446.876 946.53 L 422.917 943.17 L 413.719 929.251 Z" style="fill: rgb(141, 141, 141);"/>
    <path d="M 662.477 813.772 L 685.89 817.479 L 677.658 846.248 L 653.699 842.888 L 662.477 813.772 Z" style="fill: rgb(141, 141, 141);"/>
    <path d="M 455.379 854.472 L 671.175 854.472 C 687.337 854.472 705.951 854.528 705.952 870.69 C 705.952 886.852 671.337 910.999 655.175 910.999 L 438.379 912.999 C 422.217 912.999 404.132 887.351 404.371 870.412 C 404.61 853.473 439.217 854.472 455.379 854.472 Z" style="fill: rgb(153, 153, 153);" transform="matrix(0.956305, -0.292372, 0.292372, 0.956305, -234.119918, 200.928146)"/>
  </g>
  <g transform="matrix(1.235516, -0.077378, 0.055301, 0.883007, 33.716698, -306.910065)" style="">
    <g transform="matrix(1, 0, 0, 1, 210.838181, 41.034012)"/>
    <g transform="matrix(1.764485, -0.120881, 0.120881, 1.764485, -987.339355, -254.761124)" style="">
      <ellipse style="fill: rgb(144, 144, 144);" cx="670.495" cy="919.504" rx="37.108" ry="10.365"/>
      <line style="stroke-linecap: round; stroke-width: 11px; fill: rgb(255, 246, 246); stroke: rgb(203, 203, 203);" x1="669.751" y1="911.315" x2="671.257" y2="875.921" transform="matrix(0.996304, 0.071394, -0.036714, 1.001079, 35.285818, -48.833778)"/>
      <path d="M 670.446 927.77 C 654.695 927.77 641.698 924.607 639.807 920.52 C 639.787 920.07 639.777 919.618 639.777 919.163 C 639.777 902.263 653.477 888.563 670.377 888.563 C 687.277 888.563 700.977 902.263 700.977 919.163 C 700.977 919.715 700.962 920.263 700.934 920.807 C 698.581 924.754 685.827 927.77 670.446 927.77 Z" style="fill: rgb(179, 179, 179);"/>
    </g>
  </g>
</g>
  <g id="SvgLayer2" transform="matrix(0.868634, 0.162749, -0.162749, 0.868634, 147.576767, 82.613022)" style="">
    <path d="M 508.844 454.221 L 531.774 457.216 L 554.82 454.221 L 554.82 453.247 L 554.82 452.273 L 531.832 453.583 L 508.844 452.273 L 508.844 453.247 L 508.844 454.221 Z" style="fill: rgb(97, 49, 49);" transform="matrix(0, 1, -1, 0, 986.576502, -77.087484)"/>
    <path d="M 363.931 454.82 L 386.861 451.825 L 409.907 454.82 L 409.907 455.794 L 409.907 456.768 L 386.919 455.458 L 363.931 456.768 L 363.931 455.794 L 363.931 454.82 Z" style="fill: rgb(97, 49, 49);" transform="matrix(0, 1, -1, 0, 841.215513, 67.377504)"/>
    <path d="M 354.047 476.235 L 460.08 472.402 L 566.645 476.235 L 566.645 477.482 L 566.645 478.729 L 460.346 477.052 L 354.047 478.729 L 354.047 477.482 L 354.047 476.235 Z" style="fill: rgb(122, 60, 60);"/>
    <path d="M 439.906 434.519 L 458.753 465.068 L 478.596 434.519 L 478.596 433.545 L 478.596 432.571 L 459.1 458.058 L 439.906 432.571 L 439.906 433.545 L 439.906 434.519 Z" style="fill: rgb(97, 49, 49);" transform="matrix(0.999994, 0.003507, -0.003507, 0.999994, 1.576834, -1.607833)"/>
    <path d="M 458.643 422.358 L 459.241 422.358 L 460.241 457.697 L 457.643 457.697 L 458.643 422.358 Z" style="fill: rgb(97, 49, 49);"/>
    <path d="M 421.392 450.197 L 458.978 452.738 L 496.752 450.197 L 496.752 449.371 L 496.752 448.544 L 459.072 449.656 L 421.392 448.544 L 421.392 449.371 L 421.392 450.197 Z" style="fill: rgb(122, 60, 60);"/>
    <path d="M 443.635 444.683 L 458.939 440.52 L 473.779 444.525 L 478.491 457.797 L 474.228 472.907 L 459.418 476.929 L 443.585 473.259 L 438.828 457.973 L 443.635 444.683 Z" style="fill: rgb(137, 78, 78);"/>
    <path d="M 352.591 431.871 L 458.624 435.704 L 565.189 431.871 L 565.189 430.624 L 565.189 429.377 L 458.89 431.054 L 352.591 429.377 L 352.591 430.624 L 352.591 431.871 Z" style="fill: rgb(122, 60, 60);"/>
    <ellipse style="fill: rgb(111, 69, 69);" cx="460.669" cy="459.267" rx="6.948" ry="6.948" transform="matrix(0.965926, 0.258819, -0.258819, 0.965926, 133.067989, -103.460299)"/>
  </g>
    <g id="SvgLayer1" transform="matrix(0.296016, -0.14678, 0.14678, 0.296016, 612.088013, 505.675842)" style="">
    <path d="M 508.844 454.221 L 531.774 457.216 L 554.82 454.221 L 554.82 453.247 L 554.82 452.273 L 531.832 453.583 L 508.844 452.273 L 508.844 453.247 L 508.844 454.221 Z" style="fill: rgb(97, 49, 49);" transform="matrix(0, 1, -1, 0, 986.576502, -77.087484)"/>
    <path d="M 363.931 454.82 L 386.861 451.825 L 409.907 454.82 L 409.907 455.794 L 409.907 456.768 L 386.919 455.458 L 363.931 456.768 L 363.931 455.794 L 363.931 454.82 Z" style="fill: rgb(97, 49, 49);" transform="matrix(0, 1, -1, 0, 841.215513, 67.377504)"/>
    <path d="M 354.047 476.235 L 460.08 472.402 L 566.645 476.235 L 566.645 477.482 L 566.645 478.729 L 460.346 477.052 L 354.047 478.729 L 354.047 477.482 L 354.047 476.235 Z" style="fill: rgb(122, 60, 60);"/>
    <path d="M 439.906 434.519 L 458.753 465.068 L 478.596 434.519 L 478.596 433.545 L 478.596 432.571 L 459.1 458.058 L 439.906 432.571 L 439.906 433.545 L 439.906 434.519 Z" style="fill: rgb(97, 49, 49);" transform="matrix(0.999994, 0.003507, -0.003507, 0.999994, 1.576834, -1.607833)"/>
    <path d="M 458.643 422.358 L 459.241 422.358 L 460.241 457.697 L 457.643 457.697 L 458.643 422.358 Z" style="fill: rgb(97, 49, 49);"/>
    <path d="M 421.392 450.197 L 458.978 452.738 L 496.752 450.197 L 496.752 449.371 L 496.752 448.544 L 459.072 449.656 L 421.392 448.544 L 421.392 449.371 L 421.392 450.197 Z" style="fill: rgb(122, 60, 60);"/>
    <path d="M 443.635 444.683 L 458.939 440.52 L 473.779 444.525 L 478.491 457.797 L 474.228 472.907 L 459.418 476.929 L 443.585 473.259 L 438.828 457.973 L 443.635 444.683 Z" style="fill: rgb(137, 78, 78);"/>
    <path d="M 352.591 431.871 L 458.624 435.704 L 565.189 431.871 L 565.189 430.624 L 565.189 429.377 L 458.89 431.054 L 352.591 429.377 L 352.591 430.624 L 352.591 431.871 Z" style="fill: rgb(122, 60, 60);"/>
    <ellipse style="fill: rgb(111, 69, 69);" cx="460.669" cy="459.267" rx="6.948" ry="6.948" transform="matrix(0.965926, 0.258819, -0.258819, 0.965926, 133.067989, -103.460299)"/>
  </g>
  <g id="SvgLayer0">
    <ellipse style="fill: rgba(252, 130, 0, 0.76);" cx="1316.171" cy="626.927" rx="4.657" ry="4.657"/>
    <line style="fill: rgb(216, 216, 216); stroke-linecap: round; stroke-linejoin: round; stroke-width: 3px; stroke: rgb(107, 107, 107);" x1="1239.145" y1="622.454" x2="1237.083" y2="613.172"/>
  <line style="fill: rgb(216, 216, 216); stroke-linecap: round; stroke-linejoin: round; stroke: rgb(107, 107, 107); stroke-width: 7px;" x1="1268.024" y1="628.642" x2="1258.536" y2="626.787" transform="matrix(1, 0, 0, 1, 41.668575, 5.77595)"/>
  <ellipse style="fill: rgb(82, 82, 82);" cx="1318.215" cy="644.75" rx="17.778" ry="17.778"/>
  <ellipse style="fill: rgb(82, 82, 82);" cx="1240.177" cy="630.215" rx="9.116" ry="9.116"/>
  <ellipse style="fill: rgb(82, 82, 82);" cx="1273.552" cy="638.4" rx="17.778" ry="17.778"/>
  <line style="fill: rgb(216, 216, 216); stroke-linecap: round; stroke-linejoin: round; stroke-width: 3px; stroke: rgb(107, 107, 107);" x1="1356.725" y1="631.221" x2="1354.663" y2="640.503" transform="matrix(-1, 0, 0, -1, 2711.387939, 1271.723999)"/>
  <ellipse style="fill: rgba(252, 130, 0, 0.76);" cx="1352.545" cy="637.37" rx="4.657" ry="4.657"/>
  <ellipse style="fill: rgb(82, 82, 82);" cx="1352.806" cy="647.414" rx="9.116" ry="9.116"/>
  <path d="M 1187.562 635.726 L 1394.305 635.822 L 1390.396 646.78 L 1245.981 668.751 L 1187.562 635.726 Z" style="fill: rgb(52, 52, 52);" transform="matrix(0.988478, 0.151365, -0.151365, 0.988478, 113.600319, -187.88707)"/>
  <path d="M 1370.674 586.112 L 1370.674 687.093 L 1033.151 687.093 L 1033.151 586.112 Z M 1034.151 686.093 L 1369.674 686.093 L 1369.674 587.112 L 1034.151 587.112 Z" style="fill: none;"/>
  <line style="fill: rgb(216, 216, 216); stroke-width: 15px; stroke-linecap: round; stroke-linejoin: round; stroke-dasharray: 2px; stroke: url(#gradient-0); paint-order: fill markers;" x1="458.892" y1="644.569" x2="486.642" y2="706.98" transform="matrix(0.936159, 0.351577, -0.351577, 0.936159, 267.768646, -123.071838)"/>
  <ellipse style="fill: rgba(252, 130, 0, 0.76);" cx="1269.702" cy="621.706" rx="4.657" ry="4.657"/>
  <line style="fill: rgb(216, 216, 216); stroke-linecap: round; stroke-linejoin: round; stroke: rgb(107, 107, 107); stroke-width: 7px;" x1="1243.064" y1="622.66" x2="1237.702" y2="621.011" transform="matrix(1, 0, 0, 1, 26.816303, 4.435157)"/>
  <ellipse style="fill: rgba(252, 130, 0, 0.76);" cx="1322.187" cy="629.205" rx="4.657" ry="4.657"/>
  <ellipse style="fill: rgba(252, 130, 0, 0.76);" cx="1276.315" cy="624.316" rx="4.657" ry="4.657"/>
  <ellipse style="fill: rgba(252, 130, 0, 0.76);" cx="1241.855" cy="621.184" rx="4.657" ry="4.657"/>
  <ellipse style="fill: rgba(252, 130, 0, 0.76);" cx="1282.755" cy="614.57" rx="4.657" ry="4.657"/>
  <ellipse style="fill: rgba(55, 15, 0, 0.82);" cx="1320.522" cy="603.954" rx="10.749" ry="10.749"/>
  <ellipse style="fill: rgba(252, 130, 0, 0.76);" cx="1315.475" cy="616.137" rx="4.657" ry="4.657"/>
  <ellipse style="fill: rgba(252, 130, 0, 0.76);" cx="1356.548" cy="640.329" rx="4.657" ry="4.657"/>
  <ellipse style="fill: rgba(226, 79, 0, 0.76);" cx="1321.828" cy="622.142" rx="5.962" ry="5.962"/>
  <ellipse style="fill: rgba(226, 79, 0, 0.76);" cx="1275.793" cy="616.485" rx="5.962" ry="5.962"/>
  <ellipse style="fill: rgba(226, 79, 0, 0.76);" cx="1244.814" cy="614.048" rx="5.962" ry="5.962"/>
  <ellipse style="fill: rgba(55, 15, 0, 0.82);" cx="1243.77" cy="601.865" rx="10.749" ry="10.749"/>
  <ellipse style="fill: rgba(226, 79, 0, 0.76);" cx="1362.118" cy="630.234" rx="5.962" ry="5.962"/>
  <ellipse style="fill: rgba(226, 79, 0, 0.76);" cx="1330.79" cy="604.824" rx="5.962" ry="5.962"/>
  <ellipse style="fill: rgba(122, 37, 0, 0.82);" cx="1322.001" cy="609.785" rx="8.312" ry="8.312"/>
  <ellipse style="fill: rgba(122, 37, 0, 0.82);" cx="1272.661" cy="607.783" rx="8.312" ry="8.312"/>
  <ellipse style="fill: rgba(122, 37, 0, 0.82);" cx="1239.245" cy="607.609" rx="8.312" ry="8.312"/>
  <ellipse style="fill: rgba(55, 15, 0, 0.82);" cx="1358.985" cy="618.051" rx="10.749" ry="10.749"/>
  <ellipse style="fill: rgba(122, 30, 0, 0.82);" cx="1356.026" cy="629.19" rx="8.312" ry="8.312"/>
  <ellipse style="fill: rgba(55, 15, 0, 0.82);" cx="1282.408" cy="604.998" rx="10.749" ry="10.749"/>
  <ellipse style="fill: rgba(28, 8, 1, 0.66);" cx="1274.924" cy="591.423" rx="14.404" ry="14.404"/>
  <ellipse style="fill: rgba(28, 8, 1, 0.66);" cx="1238.549" cy="586.898" rx="14.404" ry="14.404"/>
  <ellipse style="fill: rgba(28, 8, 1, 0.66);" cx="1330.964" cy="596.818" rx="14.404" ry="14.404"/>
  <ellipse style="fill: rgba(28, 8, 1, 0.73);" cx="1369.428" cy="612.308" rx="14.404" ry="14.404"/>
  <ellipse style="fill: rgba(53, 53, 53, 0.64);" cx="1226.317" cy="581.824" rx="21.018" ry="21.018"/>
  <ellipse style="fill: rgba(53, 53, 53, 0.6);" cx="1275.735" cy="566.279" rx="21.018" ry="21.018"/>
  <ellipse style="fill: rgba(53, 53, 53, 0.79);" cx="1316.055" cy="582.011" rx="21.018" ry="21.018"/>
  <ellipse style="fill: rgba(53, 53, 53, 0.65);" cx="1357.593" cy="596.992" rx="21.018" ry="21.018"/>
  <ellipse style="fill: rgba(53, 53, 53, 0.28);" cx="1227.29" cy="544.831" rx="29.127" ry="29.127"/>
  <ellipse style="fill: rgba(53, 53, 53, 0.28);" cx="1284.05" cy="533.419" rx="29.127" ry="29.127"/>
  <ellipse style="fill: rgba(53, 53, 53, 0.28);" cx="1339.909" cy="567.655" rx="29.127" ry="29.127"/>
</g>
</svg>