<?xml version="1.0" encoding="utf-8"?>
<svg  viewBox="-192 0 2304 1080" width="2304" height="1080" xmlns="http://www.w3.org/2000/svg">

     <g id="SvgLayer0">
  <g transform="matrix(0.979036, -0.203695, 0.203695, 0.979036, -18.862003, 224.565323)" >
    <path d="M 1354.934 529.537 L 1357.574 526.214 L 1360.492 526.066 L 1359.226 533.922 L 1353.278 533.874 L 1338 534.835 L 1338.159 529.014 L 1348.377 529.006 L 1354.934 529.537 Z" style="fill: rgb(169, 72, 53);"/>
    <path d="M 1340.746 527.008 L 1348.935 526.527 L 1349.295 528.334 L 1340.986 527.973 L 1340.746 527.008 Z" style="fill: rgb(144, 58, 40);"/>
    <path d="M 1341.537 533.866 L 1349.726 533.385 L 1350.086 535.192 L 1341.777 534.831 L 1341.537 533.866 Z" style="fill: rgb(144, 58, 40);"/>
    <line style="fill: rgb(216, 216, 216); stroke: rgb(144, 58, 40);" x1="1341.897" y1="527.483" x2="1349.227" y2="534.452"/>
  </g>
  <g transform="matrix(0.722973, 0, 0, 0.722973, 499.850403, 141.451859)" style="" >
    <g transform="matrix(1, 0, 0, 1, -6.706936, 2.155802)">
      <line style="fill: rgb(216, 216, 216); stroke: rgb(169, 169, 169); stroke-linecap: square; stroke-width: 3px;" x1="1377.406" y1="364.163" x2="1389.153" y2="358.297"/>
      <ellipse style="fill: rgb(151, 151, 151);" cx="1376.922" cy="364.771" rx="6.532" ry="6.532"/>
    </g>
    <g transform="matrix(-1, 0, 0, 1, 2496.178223, -2.457399)">
      <line style="fill: rgb(216, 216, 216); stroke: rgb(169, 169, 169); stroke-linecap: square; stroke-width: 3px;" x1="1377.406" y1="364.163" x2="1389.153" y2="358.297"/>
      <ellipse style="fill: rgb(151, 151, 151);" cx="1376.922" cy="364.771" rx="6.532" ry="6.532"/>
    </g>
    <g>
      <path d="M 1211.97 407.858 L 1452.449 362.44 L 1442.552 403.2 C 1442.552 403.2 1454.779 450.498 1454.779 441.63 L 1211.97 407.858 Z" style="fill: rgb(175, 173, 151);"/>
      <ellipse style="fill: rgb(166, 144, 124);" cx="1190.13" cy="446.2" rx="24.085" ry="15.104" transform="matrix(0.957944, -0.286955, 0.286955, 0.957944, -112.276604, 355.380528)"/>
      <path d="M 1102.836 363.395 L 1158.72 359.961 L 1253.038 357.961 L 1346.867 362.903 L 1403.434 371.237 L 1430.886 392.372 L 1449.029 403.814 L 1431.039 413.571 L 1408.337 434.43 L 1348.338 442.764 L 1253.038 449.667 L 1158.72 447.667 L 1109.016 443.745 L 1072.736 424.269 L 1064.401 403.814 L 1074.535 376.989 L 1102.836 363.395 Z" style="fill: rgb(191, 189, 167);"/>
    </g>
  </g>
  <g transform="matrix(1, 0, 0, 1, -75.832329, -24.945124)" >
    <path d="M 1354.934 529.537 L 1357.574 526.214 L 1360.492 526.066 L 1359.226 533.922 L 1353.278 533.874 L 1338 534.835 L 1338.159 529.014 L 1348.377 529.006 L 1354.934 529.537 Z" style="fill: rgb(169, 72, 53);"/>
    <path d="M 1340.746 527.008 L 1348.935 526.527 L 1349.295 528.334 L 1340.986 527.973 L 1340.746 527.008 Z" style="fill: rgb(144, 58, 40);"/>
    <path d="M 1341.537 533.866 L 1349.726 533.385 L 1350.086 535.192 L 1341.777 534.831 L 1341.537 533.866 Z" style="fill: rgb(144, 58, 40);"/>
    <line style="fill: rgb(216, 216, 216); stroke: rgb(144, 58, 40);" x1="1341.897" y1="527.483" x2="1349.227" y2="534.452"/>
  </g>
  <g transform="matrix(1, 0, 0, 1, 0, 2.32215)" >
    <path d="M 1469.663 353.282 L 1472.303 349.959 L 1475.221 349.811 L 1473.955 357.667 L 1468.007 357.619 L 1452.729 358.58 L 1452.888 352.759 L 1463.106 352.751 L 1469.663 353.282 Z" style="fill: rgb(79, 131, 148);"/>
    <path d="M 1455.475 350.753 L 1463.664 350.272 L 1464.024 352.079 L 1455.715 351.718 L 1455.475 350.753 Z" style="fill: rgb(61, 112, 134);"/>
    <path d="M 1456.266 357.611 L 1464.455 357.13 L 1464.815 358.937 L 1456.506 358.576 L 1456.266 357.611 Z" style="fill: rgb(61, 112, 134);"/>
    <line style="fill: rgb(216, 216, 216); stroke: rgb(61, 112, 134);" x1="1456.626" y1="351.228" x2="1463.956" y2="358.197"/>
  </g>
  <g >
    <path d="M 1562.51 510.091 L 1565.15 506.768 L 1568.068 506.62 L 1566.802 514.476 L 1560.854 514.428 L 1545.576 515.389 L 1545.735 509.568 L 1555.953 509.56 L 1562.51 510.091 Z" style="fill: rgb(68, 120, 39);"/>
    <path d="M 1548.322 507.562 L 1556.511 507.081 L 1556.871 508.888 L 1548.562 508.527 L 1548.322 507.562 Z" style="fill: rgb(65, 105, 39);"/>
    <path d="M 1549.113 514.42 L 1557.302 513.939 L 1557.662 515.746 L 1549.353 515.385 L 1549.113 514.42 Z" style="fill: rgb(65, 105, 39);"/>
    <line style="fill: rgb(65, 105, 39); stroke: rgb(65, 105, 39);" x1="1549.473" y1="508.036" x2="1556.803" y2="515.006"/>
  </g>
         <g transform="matrix(-0.743218, 0, 0, 0.51047, 2022.434814, 358.08783)" style="" >
    <ellipse style="fill: rgb(255, 196, 95);" cx="59.317" cy="736.643" rx="588.238" ry="56.671"/>
    <path d="M 68.983 677.856 C 317.285 677.856 529.655 694.235 615.971 717.398 L -478.005 717.398 C -391.689 694.235 -179.319 677.856 68.983 677.856 Z" style="fill: rgb(135, 114, 65);"/>
    <path d="M 36.49 676.716 C 290.862 676.716 507.523 691.055 589.581 711.129 L -516.601 711.129 C -434.543 691.055 -217.882 676.716 36.49 676.716 Z" style="fill: rgb(86, 159, 79);"/>
  </g>
 </g>

</svg>
