<?xml version="1.0" encoding="utf-8"?>
<svg viewBox="0 0 1920 1080" width="1920" height="1080" xmlns="http://www.w3.org/2000/svg" overflow="visible">

   <rect width="1920" height="355.97" style="fill: rgb(40, 121, 173); stroke-linecap: round; stroke-width: 11px;" y="730.695"/>
<g id="SvgLayer1">
  <g class="SvgLayer1">
     <path d="M 108.701 700.726 L 289.861 695.698 L 274.511 659.722 L 253.625 612.118 L 224.226 591.592 L 191.607 607.838 L 146.609 617.895 L 119.532 653.507 L 108.701 700.726 Z" style="fill: rgb(69, 69, 69); stroke-width: 3px;" />
    <ellipse style="fill: rgb(255, 196, 95);" cx="59.317" cy="736.643" rx="588.238" ry="56.671"/>
    <path d="M 68.983 677.856 C 317.285 677.856 529.655 694.235 615.971 717.398 L -478.005 717.398 C -391.689 694.235 -179.319 677.856 68.983 677.856 Z" style="fill: rgb(135, 114, 65);"/>
    <path d="M 36.49 676.716 C 290.862 676.716 507.523 691.055 589.581 711.129 L -516.601 711.129 C -434.543 691.055 -217.882 676.716 36.49 676.716 Z" style="fill: rgb(86, 159, 79);"/>
  </g>

  <path d="M 526.269 717.628 L 558.888 723.431 L 586.864 717.628 L 585.318 680.081 L 576.034 642.535 L 564.304 640.213 L 548.704 658.007 L 531.684 688.977 L 526.269 717.628 Z" style="fill: rgb(69, 69, 69); stroke-width: 3px;" />
  <path d="M 496.685 717.187 L 519.247 724.537 L 537.165 718.734 L 544.13 681.961 L 526.335 671.492 L 520.794 663.755 L 509.063 666.849 L 499.779 686.215 L 496.685 717.187 Z" style="stroke-width: 3px; fill: rgb(58, 58, 58);" />
  <path d="M 2.71 693.935 L 50.029 698.19 L 86.515 691.613 L 74.912 655.614 L 57.117 645.145 L 40.745 619.614 L 23.599 625.802 L 8.899 656 L 2.71 693.935 Z" style="fill: rgb(69, 69, 69); stroke-width: 3px;" />
      <rect width="1920" height="355.97" style="fill: rgb(40, 121, 173); stroke-linecap: round; stroke-width: 11px;" y="730.695" x="-200"/>
  <path d="M 216.237 767.922 L 320.805 770.053 L 301.662 740.964 L 296.277 729.012 L 285.574 725.989 L 263.112 727.837 L 244.538 707.29 L 222.284 713.151 L 216.237 767.922 Z" style="fill: rgb(69, 69, 69); stroke-width: 3px;" />

</g>


</svg>