<?xml version="1.0" encoding="utf-8"?>
<svg viewBox="0 0 1920 1080" width="1920" height="1080" xmlns="http://www.w3.org/2000/svg">

  <g id="SvgLayer3" transform="translate(0,0)">
    <g>
      <path d="M 608.626 839.935 L 619.032 856.479 L 623.002 890.027 L 613.208 874.617 L 608.626 839.935 Z" style="fill: rgb(30, 22, 7);"/>
      <path d="M 618.059 856.165 L 726.839 861.021 L 724.223 895.923 L 622.466 889.958 L 618.059 856.165 Z" style="fill: rgb(52, 43, 24);"/>
      <path d="M 726.839 861.022 L 816.389 824.281 L 777.383 873.394 L 722.892 896.646 L 726.839 861.022 Z" style="fill: rgb(62, 51, 28);"/>
      <path d="M 608.046 840.466 L 693.752 822.501 L 816.782 824.681 L 766.399 845.678 L 725.812 862.18 L 671.601 859.771 L 617.834 856.917 L 612.94 848.248 L 608.046 840.466 Z" style="fill: rgb(42, 32, 12);"/>
    </g>
    <g transform="matrix(1, 0, 0, 1, 42.91605, -80.013588)">
      <ellipse style="fill: rgb(80, 80, 80);" cx="670.495" cy="919.504" rx="38.336" ry="10.365"/>
      <line style="fill: rgb(216, 216, 216); stroke-linecap: round; stroke-width: 11px; stroke: rgb(160, 160, 160);" x1="681.944" y1="904.281" x2="716.448" y2="890.205"/>
      <path d="M 670.446 927.77 C 654.695 927.77 641.698 924.607 639.807 920.52 C 639.787 920.07 639.777 919.618 639.777 919.163 C 639.777 902.263 653.477 888.563 670.377 888.563 C 687.277 888.563 700.977 902.263 700.977 919.163 C 700.977 919.715 700.962 920.263 700.934 920.807 C 698.581 924.754 685.827 927.77 670.446 927.77 Z" style="fill: rgb(126, 126, 126);"/>
    </g>
  </g>



</svg>