<?xml version="1.0" encoding="utf-8"?>
<svg viewBox="0 0 1920 1080" width="1920" height="1080" xmlns="http://www.w3.org/2000/svg">

  <g id="SvgLayer4">
  <path d="M 1173.047 979.997 L 1686.581 1042.238 L 2171.141 1180.087 L 2095.385 1401.361 L 1173.047 979.997 Z" style="fill: rgb(255, 196, 95);" transform="matrix(0.910945, -0.412528, -0.006126, 1.100535, 144.40802, 495.495453)" />
  <path d="M 1070.01 1142.604 L 1441.902 1129.489 L 1347.842 990.758 L 1279.098 759.577 L 1218.295 733.783 L 1201.416 852.57 L 1133.945 873.884 L 1118.061 986.381 L 1070.01 1142.604 Z" style="fill: rgb(69, 69, 69); stroke-width: 3px;"/>
  <path d="M 1402.406 970.002 L 1887.335 1032.243 L 2160.093 1126.669 L 2131.093 1391.366 L 1402.406 970.002 Z" style="fill: rgb(135, 114, 65);" transform="matrix(0.910945, -0.412528, 0.412528, 0.910945, -328.435852, 839.960999)" />
  <path d="M 1450.586 979.404 L 1935.515 1041.645 L 2208.273 1136.071 L 2179.273 1400.768 L 1450.586 979.404 Z" style="fill: rgb(86, 159, 79);" transform="matrix(0.910945, -0.412528, 0.412528, 0.910945, -328.023804, 860.673889)" />
  </g>

</svg>