<?xml version="1.0" encoding="UTF-8" standalone="no"?>
<!-- Generator: Adobe Illustrator 23.0.3, SVG Export Plug-In . SVG Version: 6.00 Build 0)  -->

<svg
   version="1.1"
   id="Layer_1"
   x="0px"
   y="0px"
   viewBox="0 50 2304 1080"
   style="enable-background:new 0 0 2304 1080;"
   xml:space="preserve"
   xmlns:xlink="http://www.w3.org/1999/xlink"
   xmlns="http://www.w3.org/2000/svg"
   xmlns:svg="http://www.w3.org/2000/svg"><defs
   id="defs246"><linearGradient
     id="linearGradient246"><stop
       style="stop-color:#ffd500;stop-opacity:0;"
       offset="0"
       id="stop246" /><stop
       style="stop-color:#ffd500;stop-opacity:0.15686275;"
       offset="0.87283242"
       id="stop248" /><stop
       style="stop-color:#ffd500;stop-opacity:0.6980198;"
       offset="1"
       id="stop247" /></linearGradient><linearGradient
     xlink:href="#linearGradient246"
     id="linearGradient247"
     x1="797.54796"
     y1="225.56592"
     x2="980.59375"
     y2="225.56592"
     gradientUnits="userSpaceOnUse" /><linearGradient
     xlink:href="#linearGradient246"
     id="linearGradient250"
     x1="886.00861"
     y1="187.68098"
     x2="1082.2535"
     y2="187.68098"
     gradientUnits="userSpaceOnUse" /></defs>
<style
   type="text/css"
   id="style1">
	.st0{fill:#84D0FF;}
	.st1{fill:#2879AD;}
	.st2{fill:#2A7EB5;}
	.st3{fill:#3383B7;}
	.st4{fill:#FFC45F;}
	.st5{fill:#877241;}
	.st6{fill:#569F4F;}
	.st7{fill:#8C8C8C;}
	.st8{fill:#A3A3A3;}
	.st9{fill:#B7B141;}
	.st10{fill:#DDD82A;}
	.st11{fill:#CEC33E;}
	.st12{fill:#44A55B;}
	.st13{fill:#00CC40;}
	.st14{fill:#25BA50;}
	.st15{fill:#223966;}
	.st16{fill:#2A4C91;}
	.st17{fill:#26407F;}
	.st18{fill:#B5B5B5;}
	.st19{fill:#D4D4D4;}
	.st20{fill:#C7C7C7;}
	.st21{fill:#898664;}
	.st22{fill:#9E9169;}
	.st23{fill:#804040;}
	.st24{fill:#A04040;}
	.st25{fill:#6B6540;}
	.st26{fill:#602F1E;}
	.st27{fill:#00C413;}
	.st28{fill:#00A413;}
	.st29{fill:#00B413;}
	.st30{fill:#493C21;}
	.st31{fill:#025B28;}
	.st32{fill:#026B00;}
	.st33{fill:#027B28;}
	.st34{fill:#3A3A3A;}
	.st35{fill:#212121;}
	.st36{fill:#153744;}
	.st37{fill:#0F2F3A;}
	.st38{fill:#132930;}
	.st39{fill:none;stroke:#A0A0A0;stroke-width:5.9345;stroke-linecap:round;}
	.st40{fill:#707070;}
	.st41{fill:#7E7E7E;}
	.st42{fill:#454545;}
	.st43{fill:#3D3D3D;}
	.st44{fill:#774406;}
	.st45{fill:#70FF00;}
	.st46{fill:#0FFF08;}
	.st47{fill:#A8FF00;}
	.st48{fill:#2A2B2A;}
	.st49{fill:#333333;}
	.st50{fill:#2D2D2D;}
	.st51{fill:#3F3F3F;}
	.st52{fill:#505050;}
	.st53{fill:none;stroke:#A0A0A0;stroke-width:8;stroke-linecap:round;}
	.st54{fill:#5B5B5B;}
	.st55{fill:none;stroke:#FFA300;stroke-miterlimit:10;}
	.st56{fill:#207003;}
	.st57{fill:#1F6300;}
	.st58{fill:#1B5B00;}
	.st59{fill:none;stroke:#A0A0A0;stroke-width:4.3737;stroke-linecap:round;}
	.st60{fill:none;stroke:#A0A0A0;stroke-width:3.6818;stroke-linecap:round;}
	.st61{fill:none;stroke:#A0A0A0;stroke-width:3.4615;stroke-linecap:round;}
	.st62{fill:#1E1607;}
	.st63{fill:#342B18;}
	.st64{fill:#3E331C;}
	.st65{fill:#2A200C;}
	.st66{fill:none;stroke:#A0A0A0;stroke-width:7.1299;stroke-linecap:round;}
</style>

<g
   transform="matrix(1.2095494,0,0,1.2095494,-78.535381,-78.338604)"
   id="g224">
	<g
   transform="translate(210.83818,41.034012)"
   id="g221">
		<path
   class="st49"
   d="m 394.8,234.2 -47.1,12.6 -1.5,-12.3 48.6,-12 z"
   id="path219" />
		<path
   class="st50"
   d="m 347.7,246.8 -96.2,3.8 2.3,-12.1 92.4,-3.9 z"
   id="path220" />
		<path
   class="st51"
   d="m 394.8,222.5 -48.6,12 -92.4,3.9 67.3,-18.6 59.2,-5.3 z"
   id="path221" />
	</g>
	<g
   id="g222">

			<ellipse
   transform="matrix(0.9993,-0.03837478,0.03837478,0.9993,-9.6913,22.1733)"
   class="st52"
   cx="572.79999"
   cy="263.5"
   rx="22.1"
   ry="6"
   id="ellipse221" />
		<path
   class="st41"
   d="m 555.2,264.9 c 0,-0.3 0,-0.6 0,-0.9 -0.4,-9.7 7.2,-17.9 17,-18.3 9.7,-0.4 17.9,7.2 18.3,17 0,0.3 0,0.5 0,0.8 -1,2.4 -8.4,4.5 -17.5,4.9 -8.9,0.3 -16.3,-1.2 -17.8,-3.5 z"
   id="path222" />
		<line
   class="st53"
   x1="582"
   y1="255.39999"
   x2="575.70001"
   y2="256.29999"
   id="line222" />
		<circle
   class="st54"
   cx="582"
   cy="255.39999"
   r="4"
   id="circle222" />
	</g>
	<g
   id="g223">

			<ellipse
   transform="matrix(0.9993,-0.03837478,0.03837478,0.9993,-9.9808,20.5147)"
   class="st52"
   cx="529.40002"
   cy="270.20001"
   rx="22.1"
   ry="6"
   id="ellipse222" />
		<path
   class="st41"
   d="m 511.9,271.6 c 0,-0.3 0,-0.6 0,-0.9 -0.4,-9.7 7.2,-17.9 17,-18.3 9.7,-0.4 17.9,7.2 18.3,17 0,0.3 0,0.5 0,0.8 -1,2.4 -8.4,4.5 -17.5,4.9 -8.9,0.3 -16.4,-1.2 -17.8,-3.5 z"
   id="path223" />
		<line
   class="st53"
   x1="538.59998"
   y1="262.10001"
   x2="532.40002"
   y2="263.10001"
   id="line223" />
		<circle
   class="st54"
   cx="538.59998"
   cy="262.10001"
   r="4"
   id="circle223" />
	</g>
<circle
   class="st48"
   cx="594.55725"
   cy="248.75145"
   r="6.815166"
   id="circle218-7"
   style="fill:#b8b8b8;fill-opacity:0.622302;stroke-width:0.117503" /><circle
   class="st48"
   cx="583.36353"
   cy="250.15578"
   r="8.3507109"
   id="circle218-7-7"
   style="fill:#b8b8b8;fill-opacity:0.622302;stroke-width:0.143978" /><circle
   class="st48"
   cx="590.74744"
   cy="258.08942"
   r="6.815166"
   id="circle218-7-5"
   style="fill:#b8b8b8;fill-opacity:0.622302;stroke-width:0.117503" /><ellipse
   class="st48"
   cx="582.97021"
   cy="259.53491"
   id="circle218-7-2"
   style="fill:#b8b8b8;fill-opacity:0.622302;stroke-width:0.167485"
   rx="9.5450239"
   ry="9.8862562" /><circle
   class="st48"
   cx="584.23224"
   cy="172.17062"
   r="6.815166"
   id="circle218-7-1"
   style="fill:#b8b8b8;fill-opacity:0.622302;stroke-width:0.117503"
   transform="translate(-42.91605,80.013588)" /><circle
   class="st48"
   cx="590.61609"
   cy="182.07584"
   r="7.4976301"
   id="circle218-7-4"
   style="fill:#b8b8b8;fill-opacity:0.622302;stroke-width:0.12927"
   transform="translate(-42.91605,80.013588)" /><circle
   class="st48"
   cx="579.84363"
   cy="182.4929"
   r="8.3507109"
   id="circle218-7-23"
   style="fill:#b8b8b8;fill-opacity:0.622302;stroke-width:0.143978"
   transform="translate(-42.91605,80.013588)" /></g>



</svg>
