<svg xmlns="http://www.w3.org/2000/svg" xmlns:xlink="http://www.w3.org/1999/xlink" viewBox="0 0 2304 1080">

<g transform="translate(100,150)">
  <polygon points="1233.24 626.43 1243.62 594.85 1252.44 591.51 1250.11 623.67 1233.24 626.43" style="fill:#992c2c" />
  <polygon points="1313.56 655.7 1193.03 613.31 1204.99 609.58 1325.04 651.87 1313.56 655.7" style="fill:#660c0c" />
  <polygon points="1493.12 668.06 1119.25 543.53 1155.33 531.35 1531.69 658.72 1493.12 668.06" style="fill:#491717" />
  <line x1="1150.28" y1="612.94" x2="1157.5" y2="551.16" style="fill:none;stroke:#4c2525;stroke-linecap:round;stroke-miterlimit:10;stroke-width:6px" />
  <line x1="1163.22" y1="614.5" x2="1171.81" y2="545.86" style="fill:none;stroke:#4c2525;stroke-linecap:round;stroke-miterlimit:10;stroke-width:6px" />
  <line x1="1451.37" y1="713.78" x2="1471.74" y2="657.68" style="fill:none;stroke:#4c2525;stroke-linecap:round;stroke-miterlimit:10;stroke-width:6px" />
  <line x1="1464.31" y1="715.34" x2="1486.05" y2="652.37" style="fill:none;stroke:#4c2525;stroke-linecap:round;stroke-miterlimit:10;stroke-width:6px" />
  <polygon points="1307.19 654.43 1266.99 656.61 1231.28 631.13 1232.07 627.21 1325.99 595.98 1307.19 654.43" style="fill:#7a1e1e" />
  <polygon points="1360.55 673.23 1307.19 654.43 1325.99 595.98 1377.38 614.38 1360.55 673.23" style="fill:#333" />
  <polygon points="1284.25 662.09 1266.01 656.41 1307.19 654.43 1360.55 673.23 1284.25 662.09" style="fill:#490f0f" />
  <polygon points="1477.26 727.1 1122.62 608.44 1144.77 603.68 1501.24 724.45 1477.26 727.1" style="fill:#4f1a1a" />
  <path d="M1394.15,647.52c-8.91,29.15-36.7,51-63.33,41.42-25.69-9.21-35.67-43.55-26.32-72.55s36.26-48.85,62.94-39.46C1392.12,585.63,1403,618.69,1394.15,647.52Z" transform="translate(-4)" style="fill:#fff;opacity:0.47" />
  <path d="M1356.07,635.73c-1.44,4.72-5.94,8.25-10.25,6.7s-5.78-7-4.27-11.75,5.87-7.91,10.2-6.38C1355.74,625.7,1357.5,631.06,1356.07,635.73Z" transform="translate(-4)" style="fill:#604040" />
  <line x1="1185.59" y1="627.63" x2="1202.45" y2="624.87" style="fill:none;stroke:#5b4242;stroke-linecap:round;stroke-miterlimit:10;stroke-width:3px" />
  <line x1="1188.73" y1="632.33" x2="1199.89" y2="631.19" style="fill:none;stroke:#606345;stroke-linecap:round;stroke-miterlimit:10;stroke-width:9px" />
  <path d="M1213.91,631c.26,2.22-4.17,5.47-7.2,5.7a5.5,5.5,0,1,1-.81-11C1208.93,625.45,1213.64,628.73,1213.91,631Z" transform="translate(-4)" style="fill:#bc0000" />
  <line x1="1213.24" y1="637.22" x2="1230.11" y2="634.47" style="fill:none;stroke:#5b4242;stroke-linecap:round;stroke-miterlimit:10;stroke-width:3px" />
  <line x1="1412.93" y1="704.58" x2="1429.79" y2="701.82" style="fill:none;stroke:#5b4242;stroke-linecap:round;stroke-miterlimit:10;stroke-width:3px" />
  <line x1="1416.07" y1="709.28" x2="1427.23" y2="708.14" style="fill:none;stroke:#606345;stroke-linecap:round;stroke-miterlimit:10;stroke-width:9px" />
  <path d="M1441.25,707.9c.26,2.22-4.17,5.47-7.2,5.7a5.5,5.5,0,0,1-.81-11C1436.27,702.4,1441,705.68,1441.25,707.9Z" transform="translate(-4)" style="fill:#bc0000" />
  <line x1="1386.05" y1="696.16" x2="1402.92" y2="693.41" style="fill:none;stroke:#5b4242;stroke-linecap:round;stroke-miterlimit:10;stroke-width:3px" />
</g>


</svg>