<svg xmlns="http://www.w3.org/2000/svg" viewBox="0 0 14.3 14.3"><title>BOMBinv</title><path d="M8.29,6.67h0A.94.94,0,0,1,9,7c.16.16.5.5.17,1.44a8.39,8.39,0,0,1-2,2.89c-.9.9-2.41,2.41-3.34,2.41-.11,0-.44,0-1-.54-.69-.7-.59-1.11-.4-1.54A11,11,0,0,1,4.69,8.85C6.05,7.49,7.4,6.67,8.29,6.67m0-1.43c-1.4,0-3.06,1-4.61,2.6-2.27,2.27-4,4.23-1.87,6.35a2.84,2.84,0,0,0,2,1c1.41,0,2.81-1.29,4.35-2.83C10.43,10.05,11.62,7.55,10,6a2.38,2.38,0,0,0-1.74-.73Z" transform="translate(-0.85 -0.85)" style="fill:lime"/><path d="M10.68,3.3l.43.91.22.46.46.22.91.43-.79.79-1.68-.37L9.88,4.1l.8-.8M11.1.85,8.32,3.63,9,6.94l3.35.74L15.15,4.9,12.4,3.6,11.1.85Z" transform="translate(-0.85 -0.85)" style="fill:lime"/></svg>