<svg id="Layer_1" data-name="Layer 1" xmlns="http://www.w3.org/2000/svg" viewBox="0 0 48.01 44.03"><defs><style>.cls-1{fill:none;stroke:lime;stroke-width:2px;}</style></defs><title>Carryinv</title><path class="cls-1" d="M21.17,22.77c-11-.53-19.3-3.17-19.17-6.35s8.06-5.55,18.9-5.81Z" transform="translate(-1 -2.97)"/><path class="cls-1" d="M48,17.09c-.13,3-8.33,5.55-19.3,5.94l.66-12.29C40.07,11.4,48.13,14,48,17.09Z" transform="translate(-1 -2.97)"/><path class="cls-1" d="M29.63,4.26l-.27,6.35L28.7,22.9l-.92,17.32-.14,5.68h0a10.78,10.78,0,0,1-2.9,0c-.93,0-2-.13-2.91-.13h0l-.27-5.68-.39-17.45-.27-12.3L20.77,4Z" transform="translate(-1 -2.97)"/><path class="cls-1" d="M21.56,45.77c-3.7-.4-6.34-1.59-6.47-3S17.73,40.35,21.3,40Z" transform="translate(-1 -2.97)"/><path class="cls-1" d="M34.12,43.13c0,1.32-2.77,2.51-6.34,2.77l.39-5.68C31.61,40.75,34.12,41.8,34.12,43.13Z" transform="translate(-1 -2.97)"/><path class="cls-1" d="M26.85,19.86c0,1.72-1.59,10.31-2.11,10.18S23,21.58,23,19.73s.92-3.31,1.85-3.17C26.19,16.56,26.85,18.14,26.85,19.86Z" transform="translate(-1 -2.97)"/></svg>