<?xml version="1.0" encoding="utf-8"?>
<svg viewBox="0 0 20 20" xmlns="http://www.w3.org/2000/svg" xmlns:bx="https://boxy-svg.com">
  <path d="M 5.642 7.423 Q 5.642 7.212 5.834 7.09 Q 6.04 6.96 6.308 7.038 Q 6.607 7.126 6.796 7.423 Q 7.009 7.757 6.975 8.193 Q 6.937 8.679 6.604 9.089 Q 6.235 9.543 5.642 9.732 Q 4.991 9.939 4.295 9.756 Q 3.539 9.557 2.976 8.962 Q 2.37 8.321 2.179 7.423 Q 1.975 6.461 2.31 5.499 Q 2.666 4.475 3.526 3.758 Q 4.436 2.998 5.642 2.806 Q 6.914 2.603 8.143 3.091 Q 9.435 3.604 10.307 4.73 Q 11.221 5.909 11.414 7.423 Q 11.615 9.004 10.974 10.501 Q 10.306 12.061 8.913 13.088 Q 7.465 14.156 5.642 14.349 Q 3.751 14.55 1.987 13.754 Q 0.16 12.931 -1.023 11.271 Q -2.244 9.555 -2.438 7.423 Q -2.638 5.223 -1.689 3.19 Q -0.711 1.096 1.217 -0.241 Q 3.201 -1.617 5.642 -1.812 Q 8.151 -2.011 10.452 -0.908 Q 12.814 0.226 14.306 2.421 Q 15.836 4.673 16.031 7.423 Q 16.23 10.242 14.972 12.81 Q 14.23 14.325 13.053 15.552" style="fill: rgb(248, 255, 54); stroke: rgb(255, 183, 0);" transform="matrix(0.999767, 0.021579, -0.021579, 0.999767, 3.327068, 2.722734)" bx:shape="spiral 5.642 7.423 0 11 0 857.643 1@73694b4d"/>
  <line style="fill: rgb(216, 216, 216); stroke: rgb(255, 183, 0);" x1="16.466" y1="18.35" x2="13.093" y2="14.569"/>
</svg>