<svg xmlns="http://www.w3.org/2000/svg" viewBox="0 0 15 15"><title>SCOPEinv</title><path d="M8,3A5,5,0,1,1,3,8,5,5,0,0,1,8,3M8,2a6,6,0,1,0,6,6A6,6,0,0,0,8,2Z" transform="translate(-0.5 -0.5)" style="fill:lime"/><path d="M8,5A3,3,0,1,1,5,8,3,3,0,0,1,8,5M8,4a4,4,0,1,0,4,4A4,4,0,0,0,8,4Z" transform="translate(-0.5 -0.5)" style="fill:lime"/><line x1="7.5" x2="7.5" y2="6" style="fill:none;stroke:lime;stroke-miterlimit:10"/><line x1="7.5" y1="9" x2="7.5" y2="15" style="fill:none;stroke:lime;stroke-miterlimit:10"/><line x1="6" y1="7.5" y2="7.5" style="fill:none;stroke:lime;stroke-miterlimit:10"/><line x1="15" y1="7.5" x2="9" y2="7.5" style="fill:none;stroke:lime;stroke-miterlimit:10"/></svg>