<?xml version="1.0" encoding="UTF-8" standalone="no"?>
<svg
   version="1.1"
   viewBox="0 0 512 512"
   enable-background="new 0 0 512 512"
   id="svg32"
   sodipodi:docname="shopping-basket-svgrepo-com.svg"
   inkscape:version="1.2.1 (9c6d41e410, 2022-07-14)"
   xmlns:inkscape="http://www.inkscape.org/namespaces/inkscape"
   xmlns:sodipodi="http://sodipodi.sourceforge.net/DTD/sodipodi-0.dtd"
   xmlns="http://www.w3.org/2000/svg"
   xmlns:svg="http://www.w3.org/2000/svg">
  <defs
     id="defs36" />
  <sodipodi:namedview
     id="namedview34"
     pagecolor="#ffffff"
     bordercolor="#000000"
     borderopacity="0.25"
     inkscape:showpageshadow="2"
     inkscape:pageopacity="0.0"
     inkscape:pagecheckerboard="0"
     inkscape:deskcolor="#d1d1d1"
     showgrid="false"
     inkscape:zoom="1.5390625"
     inkscape:cx="256"
     inkscape:cy="256"
     inkscape:window-width="1920"
     inkscape:window-height="986"
     inkscape:window-x="-11"
     inkscape:window-y="-11"
     inkscape:window-maximized="1"
     inkscape:current-layer="svg32" />
  <g
     id="g30"
     style="fill:#ffffff">
    <g
       id="g28"
       style="fill:#ffffff">
      <path
         d="m485.7,198.5c-10.7-13.4-25.3-20.8-41.1-20.8h-36.1c-3.4-92.6-70.5-166.7-152.5-166.7-82,0-149.1,74.1-152.5,166.7h-36.1c-15.8,0-30.4,7.4-41.1,20.8-13.5,16.8-18.4,40.2-13.3,62.7l43.3,190.8c6.5,28.8 28.9,49 54.4,49h290.5c25.5,0 47.9-20.1 54.4-49l43.4-190.8c5.1-22.5 0.2-45.9-13.3-62.7zm-229.7-146.7c59.6-1.42109e-14 108.4,55.8 111.6,125.9h-223.2c3.2-70 52-125.9 111.6-125.9zm203.2,200.3l-43.3,190.9c-2.2,9.8-8.5,17.2-14.6,17.2h-290.6c-6.1,0-12.4-7.4-14.6-17.2l-43.3-190.9c-2.3-10.1-3.7-33.6 14.6-33.6h377.2c19.7,0 16.9,23.5 14.6,33.6z"
         id="path20"
         style="fill:#ffffff" />
      <path
         d="m154.7,259.1c-11.3,0-20.4,9.1-20.4,20.4v127.5c0,11.3 9.1,20.4 20.4,20.4 11.3,0 20.4-9.1 20.4-20.4v-127.5c0.1-11.2-9.1-20.4-20.4-20.4z"
         id="path22"
         style="fill:#ffffff" />
      <path
         d="m253.6,259.1c-11.3,0-20.4,9.1-20.4,20.4v127.5c0,11.3 9.1,20.4 20.4,20.4 11.3,0 20.4-9.1 20.4-20.4v-127.5c0-11.2-9.2-20.4-20.4-20.4z"
         id="path24"
         style="fill:#ffffff" />
      <path
         d="m352.4,259.1c-11.3,0-20.4,9.1-20.4,20.4v127.5c0,11.3 9.1,20.4 20.4,20.4 11.3,0 20.4-9.1 20.4-20.4v-127.5c5.68434e-14-11.2-9.1-20.4-20.4-20.4z"
         id="path26"
         style="fill:#ffffff" />
    </g>
  </g>
</svg>
