<?xml version="1.0" encoding="utf-8"?>
<!-- Generator: Adobe Illustrator 23.0.3, SVG Export Plug-In . SVG Version: 6.00 Build 0)  -->
<svg version="1.1" id="Layer_1" xmlns="http://www.w3.org/2000/svg" xmlns:xlink="http://www.w3.org/1999/xlink" x="0px" y="0px"
	 viewBox="0 0 50 50" style="enable-background:new 0 0 50 50;" xml:space="preserve">
<style type="text/css">
	.st0{fill:none;stroke:#00FF00;stroke-width:2;}
</style>
<path class="st0" d="M41.9,29.2l-30,17.4l-4.5-7.8l19.2-11.1c0.8,0.7,1.9,1.2,3.1,1.2c2.5,0,4.5-2,4.5-4.5c0-0.3,0-0.7-0.1-1
	l3.3-1.9L41.9,29.2z"/>
<path class="st0" d="M34.3,24.4c0,2.5-2,4.5-4.5,4.5c-1.2,0-2.3-0.5-3.1-1.2c-0.9-0.8-1.5-2-1.5-3.3c0-0.8,0-0.6,0-0.8
	c-0.3-0.1-0.3-0.1-0.4-0.1c-0.1,1.5-3.1,5.5-6.9,5.5c-4.1,0-7.4-3.3-7.4-7.4c0-2.9,1.6-5.3,4-6.6c0-0.2-0.1-0.4-0.1-0.6
	c-0.7,0.3-1.4,0.5-2.2,0.5c-2.9,0-5.2-2.3-5.2-5.2c0-2.9,2.4-5.3,5.2-5.3c1.6,0,3.1,0.7,4,1.9C18,3.9,20.8,2.4,24,2.4
	c5.5,0,10,4.5,10,10c0,3-1.4,5.7-3.5,7.5c1.8,0.3,3.3,1.7,3.7,3.5C34.2,23.7,34.3,24,34.3,24.4z"/>
<line class="st0" x1="16.1" y1="33.8" x2="20.6" y2="41.6"/>
<line class="st0" x1="13.7" y1="35.2" x2="18.3" y2="42.9"/>
<circle class="st0" cx="41.7" cy="21.1" r="2.2"/>
<line class="st0" x1="46.4" y1="22.8" x2="39.9" y2="26.2"/>
</svg>
