<?xml version="1.0" encoding="utf-8"?>
<!-- Generator: Adobe Illustrator 23.0.3, SVG Export Plug-In . SVG Version: 6.00 Build 0)  -->
<svg version="1.1" id="Layer_1" xmlns="http://www.w3.org/2000/svg" xmlns:xlink="http://www.w3.org/1999/xlink" x="0px" y="0px"
	 viewBox="0 0 50 50" style="enable-background:new 0 0 50 50;" xml:space="preserve">
<style type="text/css">
	.st1{fill:none;stroke:#00ff00;stroke-width:2;stroke-miterlimit:10;}
</style>
<!--<rect x="1" y="1" class="st1" width="48" height="48"/>-->
<path class="st1" d="M12.86,5.82l-0.34-0.34l-7.06,7.06C4.56,11.63,4,10.38,4,9c0-2.76,2.24-5,5-5C10.55,4,11.94,4.71,12.86,5.82z"
	/>
<polygon class="st1" points="33,25.95 36.86,32.64 32.22,37.28 25.93,33.02 5.45,12.55 12.52,5.48 12.86,5.82 "/>
<polygon class="st1" points="42.45,42.35 41.35,43.45 40.13,42.62 41.7,41.05 "/>
<polygon class="st1" points="44.64,38.11 37.57,45.18 30.95,38.55 32.22,37.28 36.86,32.64 38.02,31.48 "/>
</svg>
