<?xml version="1.0" encoding="utf-8"?>
<!-- Generator: Adobe Illustrator 23.0.3, SVG Export Plug-In . SVG Version: 6.00 Build 0)  -->
<svg version="1.1" id="Layer_1" xmlns="http://www.w3.org/2000/svg" xmlns:xlink="http://www.w3.org/1999/xlink" x="0px" y="0px"
	 viewBox="0 0 50 50" style="enable-background:new 0 0 50 50;" xml:space="preserve">
<style type="text/css">
	.st0{fill:none;stroke:#00FF00;stroke-width:2;}
</style>
<g>
	<path class="st0" d="M22.1,16.4C13.8,16,7.5,14,7.6,11.6c0-2.3,6.1-4.2,14.3-4.4L22.1,16.4z"/>
	<path class="st0" d="M42.4,12.1c-0.1,2.3-6.3,4.2-14.6,4.5l0.5-9.3C36.4,7.8,42.5,9.8,42.4,12.1z"/>
	<path class="st0" d="M28.5,2.4l-0.2,4.8l-0.5,9.3l-0.7,13.1L27,33.9l0,0c-0.6,0.1-1.4,0.1-2.2,0c-0.7,0-1.5-0.1-2.2-0.1l0,0
		l-0.2-4.3l-0.3-13.2l-0.2-9.3l-0.1-4.8L28.5,2.4z"/>
	<path class="st0" d="M22.4,33.8c-2.8-0.3-4.8-1.2-4.9-2.3c0-1,2-1.8,4.7-2.1L22.4,33.8z"/>
	<path class="st0" d="M31.9,31.8c0,1-2.1,1.9-4.8,2.1l0.3-4.3C30,30,31.9,30.8,31.9,31.8z"/>
	<path class="st0" d="M26.4,14.2c0,1.3-1.2,7.8-1.6,7.7c-0.3,0-1.3-6.4-1.3-7.8s0.7-2.5,1.4-2.4C25.9,11.7,26.4,12.9,26.4,14.2z"/>
</g>
</svg>
