<?xml version="1.0" encoding="utf-8"?>
<!-- Generator: Adobe Illustrator 23.0.3, SVG Export Plug-In . SVG Version: 6.00 Build 0)  -->
<svg version="1.1" id="Layer_1" xmlns="http://www.w3.org/2000/svg" xmlns:xlink="http://www.w3.org/1999/xlink" x="0px" y="0px"
	 viewBox="0 0 50 50" style="enable-background:new 0 0 50 50;" xml:space="preserve">
<style type="text/css">
	.st0{fill:none;stroke:#00FF00;stroke-width:2;}
</style>
<g>
	<path class="st0" d="M22.1,16.4C13.8,16,7.5,14,7.6,11.6c0-2.3,6.1-4.2,14.3-4.4L22.1,16.4z"/>
	<path class="st0" d="M42.4,12.1c-0.1,2.3-6.3,4.2-14.6,4.5l0.5-9.3C36.4,7.8,42.5,9.8,42.4,12.1z"/>
	<path class="st0" d="M28.5,2.4l-0.2,4.8l-0.5,9.3l-0.7,13.1L27,33.9l0,0c-0.6,0.1-1.4,0.1-2.2,0c-0.7,0-1.5-0.1-2.2-0.1l0,0
		l-0.2-4.3l-0.3-13.2l-0.2-9.3l-0.1-4.8L28.5,2.4z"/>
	<path class="st0" d="M22.4,33.8c-2.8-0.3-4.8-1.2-4.9-2.3c0-1,2-1.8,4.7-2.1L22.4,33.8z"/>
	<path class="st0" d="M31.9,31.8c0,1-2.1,1.9-4.8,2.1l0.3-4.3C30,30,31.9,30.8,31.9,31.8z"/>
	<path class="st0" d="M26.4,14.2c0,1.3-1.2,7.8-1.6,7.7c-0.3,0-1.3-6.4-1.3-7.8s0.7-2.5,1.4-2.4C25.9,11.7,26.4,12.9,26.4,14.2z"/>
</g>
<path class="st0" d="M11.9,35.3c0.8,1.5,0.8,3.5-0.5,5.2c-0.7,0.9-1.8,1.6-2.9,1.8c-3.1,0.6-5.8-1.8-5.8-4.8c0-0.8,0.2-1.5,0.5-2.2
	c-0.7-0.9-1.1-2.1-1.1-3.3c0-2,1.1-3.8,2.7-4.7c-0.7-0.7-1.1-1.7-1.1-2.8c0-1.5,0.8-2.7,2-3.4c-0.4-0.5-0.7-1.1-0.7-1.8
	c0-1,0.6-1.9,1.4-2.3c-0.3-0.3-0.5-0.8-0.5-1.2c0-1,0.8-1.8,1.8-1.8c1,0,1.8,0.8,1.8,1.8c0,0.5-0.2,0.9-0.5,1.2
	c0.8,0.4,1.4,1.3,1.4,2.3c0,0.7-0.3,1.3-0.7,1.8c1.2,0.7,2,1.9,2,3.4c0,1.1-0.4,2-1.1,2.8C12,28.2,13,30,13,32
	C13,33.2,12.6,34.4,11.9,35.3z"/>
<path class="st0" d="M46.8,35.3c0.8,1.5,0.8,3.5-0.5,5.2c-0.7,0.9-1.8,1.6-2.9,1.8c-3.1,0.6-5.8-1.8-5.8-4.8c0-0.8,0.2-1.5,0.5-2.2
	C37.4,34.4,37,33.2,37,32c0-2,1.1-3.8,2.7-4.7c-0.7-0.7-1.1-1.7-1.1-2.8c0-1.5,0.8-2.7,2-3.4c-0.4-0.5-0.7-1.1-0.7-1.8
	c0-1,0.6-1.9,1.4-2.3c-0.3-0.3-0.5-0.8-0.5-1.2c0-1,0.8-1.8,1.8-1.8c1,0,1.8,0.8,1.8,1.8c0,0.5-0.2,0.9-0.5,1.2
	c0.8,0.4,1.4,1.3,1.4,2.3c0,0.7-0.3,1.3-0.7,1.8c1.2,0.7,2,1.9,2,3.4c0,1.1-0.4,2-1.1,2.8c1.6,0.9,2.7,2.7,2.7,4.7
	C47.9,33.2,47.5,34.4,46.8,35.3z"/>
</svg>
