<?xml version="1.0" encoding="utf-8"?>
<!-- Generator: Adobe Illustrator 23.0.3, SVG Export Plug-In . SVG Version: 6.00 Build 0)  -->
<svg version="1.1" id="Layer_1" xmlns="http://www.w3.org/2000/svg" xmlns:xlink="http://www.w3.org/1999/xlink" x="0px" y="0px"
	 viewBox="0 0 50 50" style="enable-background:new 0 0 50 50;" xml:space="preserve">
<style type="text/css">
	.st0{fill:none;stroke:#00FF00;stroke-width:2;}
</style>
<g>
	<circle class="st0" cx="10.7" cy="39.3" r="4"/>
	<circle class="st0" cx="10.7" cy="39.3" r="7.2"/>
	<line class="st0" x1="10.7" y1="50" x2="10.7" y2="28.7"/>
	<line class="st0" x1="0" y1="39.3" x2="21.3" y2="39.3"/>
</g>
<g>
	<polygon class="st0" points="47.8,9.5 33.4,16 6.5,16 3.5,9.5 	"/>
	<polygon class="st0" points="39,9.5 27.1,9.5 27.1,3.5 36.5,3.5 	"/>
	<path class="st0" d="M19.8,9.2c0,0.1,0,0.2,0,0.3h-8.7c0-0.1,0-0.2,0-0.3c0-2.4,1.9-4.3,4.3-4.3C17.8,4.9,19.8,6.8,19.8,9.2z"/>
	<line class="st0" x1="11.9" y1="6.7" x2="6" y2="3.5"/>
</g>
<g>
	<polygon class="st0" points="45,29.5 19.8,29.5 22.3,25.7 42.5,25.7 	"/>
	<path class="st0" d="M45,31.3c0,1.5-1.2,2.8-2.8,2.8H22.5c-1.5,0-2.8-1.2-2.8-2.8c0-0.7,0.2-1.3,0.7-1.8h23.9
		C44.8,30,45,30.6,45,31.3z"/>
	<path class="st0" d="M30.3,25.4c0,0.1,0,0.2,0,0.3h8.7c0-0.1,0-0.2,0-0.3c0-2.4-1.9-4.3-4.3-4.3C32.2,21.1,30.3,23,30.3,25.4z"/>
	<line class="st0" x1="38.1" y1="22.8" x2="44.1" y2="19.7"/>
</g>
</svg>
