<?xml version="1.0" encoding="utf-8"?>
<!-- Generator: Adobe Illustrator 23.0.3, SVG Export Plug-In . SVG Version: 6.00 Build 0)  -->
<svg version="1.1" id="Layer_1" xmlns="http://www.w3.org/2000/svg" xmlns:xlink="http://www.w3.org/1999/xlink" x="0px" y="0px"
	 viewBox="0 0 50 50" style="enable-background:new 0 0 50 50;" xml:space="preserve">
<style type="text/css">
	.st0{fill:none;stroke:#00FF00;stroke-width:2;}
</style>
<g>
	<circle class="st0" cx="10.7" cy="39.3" r="4"/>
	<circle class="st0" cx="10.7" cy="39.3" r="7.2"/>
	<line class="st0" x1="10.7" y1="50" x2="10.7" y2="28.7"/>
	<line class="st0" x1="0" y1="39.3" x2="21.3" y2="39.3"/>
</g>
<g>
	<path class="st0" d="M28.4,20.7c-6.1,5.6-11.9,8.7-13.6,7c-1.6-1.6,1.3-7.3,6.8-13.3L28.4,20.7z"/>
	<path class="st0" d="M39.5,3.1c1.6,1.7-1.4,7.5-7,13.6l-6.3-6.8C32.2,4.4,37.9,1.4,39.5,3.1z"/>
	<path class="st0" d="M22.9,6.3l3.3,3.5l6.3,6.8l8.9,9.6l2.9,3.2c0,0,0,0,0,0c-0.4,0.5-0.9,1.1-1.5,1.6c-0.5,0.5-1.1,1-1.6,1.5
		c0,0,0,0,0,0L38,29.6l-9.6-9l-6.8-6.3l-3.5-3.3L22.9,6.3z"/>
	<path class="st0" d="M41.1,32.6c-2.2,1.8-4.2,2.6-5,1.9c-0.7-0.7,0.1-2.7,1.8-4.8L41.1,32.6z"/>
	<path class="st0" d="M46.2,24.4c0.7,0.7-0.1,2.8-1.9,4.9l-2.9-3.2C43.6,24.5,45.6,23.7,46.2,24.4z"/>
	<path class="st0" d="M29.8,16c0.9,0.9,4.7,6.3,4.4,6.5c-0.2,0.2-5.5-3.5-6.5-4.5s-1.3-2.2-0.7-2.7C27.7,14.7,28.9,15.1,29.8,16z"/>
</g>
</svg>
