<?xml version="1.0" encoding="utf-8"?>
<!-- Generator: Adobe Illustrator 23.0.3, SVG Export Plug-In . SVG Version: 6.00 Build 0)  -->
<svg version="1.1" id="_x32_" xmlns="http://www.w3.org/2000/svg" xmlns:xlink="http://www.w3.org/1999/xlink" x="0px" y="0px"
	 viewBox="0 0 800 800" style="enable-background:new 0 0 800 800;" xml:space="preserve">
<style type="text/css">
	.st0{display:none;stroke:#FFFFFF;stroke-miterlimit:10;}
	.st1{fill:#FFFFFF;}
</style>
<rect class="st0" width="800" height="800"/>
<g>
	<path class="st1" d="M585.1,134.5C534,83.4,467,57.8,400,57.8c-67,0-134,25.6-185.1,76.7c-81.5,81.5-102.7,205.7-49.7,301.1
		C226.1,545,400,762.2,400,762.2S573.9,545,634.8,435.6C687.8,340.2,666.6,215.9,585.1,134.5z M400,478.6c-87.8,0-159-71.2-159-159
		c0-87.8,71.2-159,159-159c87.8,0,159,71.2,159,159C559,407.4,487.8,478.6,400,478.6z"/>
</g>
</svg>
